<svg xmlns="http://www.w3.org/2000/svg" width="70" height="70" viewBox="0 0 70 70"><defs><style>.a{fill:#fde7e7;opacity:0;}.b{fill:#6161d6;}</style></defs><g transform="translate(-817 -698)"><rect class="a" width="70" height="70" transform="translate(817 698)"/><g transform="translate(825.205 705.459)"><path class="b" d="M50.429,51.541a1.162,1.162,0,0,0,1.162-1.162V48.054a1.162,1.162,0,0,0-1.162-1.162H48.491V20.159A1.162,1.162,0,0,0,47.329,19H37.643V4.662A1.162,1.162,0,0,0,36.481,3.5H17.11a1.162,1.162,0,0,0-1.162,1.162v6.586H6.262A1.162,1.162,0,0,0,5.1,12.411V46.892H3.162A1.162,1.162,0,0,0,2,48.054v2.325a1.162,1.162,0,0,0,1.162,1.162ZM14.4,43.793H9.749V39.143H14.4Zm0-7.749H9.749V31.395H14.4Zm0-7.749H9.749V23.646H14.4Zm0-7.749H9.749V15.9H14.4ZM25.246,43.793H20.6V39.143h4.649Zm0-7.749H20.6V31.395h4.649Zm0-7.749H20.6V23.646h4.649Zm0-7.749H20.6V15.9h4.649Zm0-7.749H20.6V8.149h4.649Zm7.749,30.994H28.345V39.143h4.649Zm0-7.749H28.345V31.395h4.649Zm0-7.749H28.345V23.646h4.649Zm0-7.749H28.345V15.9h4.649Zm0-7.749H28.345V8.149h4.649ZM43.842,43.793H39.193V39.143h4.649Zm0-7.749H39.193V31.395h4.649Zm0-7.749H39.193V23.646h4.649Z" transform="translate(0)"/></g></g></svg>