<svg xmlns="http://www.w3.org/2000/svg" width="70" height="70" viewBox="0 0 70 70"><defs><style>.a{fill:#fde7e7;opacity:0;}.b{fill:#6161d6;}</style></defs><g transform="translate(-385 -698)"><rect class="a" width="70" height="70" transform="translate(385 698)"/><g transform="translate(-1441.199 -767.615)"><path class="b" d="M3135.126,1486.118a4.814,4.814,0,0,0,4.126-7.29l-4.126-7.146-4.126,7.146a4.814,4.814,0,0,0,4.126,7.29Zm0,0" transform="translate(-1273.939 0)"/><path class="b" d="M1875.623,2767.223h-12.03v-4.813h-4.812v4.813H1846.75a7.224,7.224,0,0,0-7.218,7.218v3.705a4.713,4.713,0,0,0,8.049,3.332l5.149-5.137,5.137,5.125a4.825,4.825,0,0,0,6.665,0l5.149-5.125,5.137,5.125a4.676,4.676,0,0,0,3.332,1.384,4.724,4.724,0,0,0,4.716-4.716v-3.693a7.26,7.26,0,0,0-7.242-7.218Zm0,0" transform="translate(0 -1273.886)"/><path class="b" d="M1872.243,4223.58l-2.587-2.586-2.6,2.586a8.525,8.525,0,0,1-11.766,0l-2.587-2.586-2.6,2.586a8.156,8.156,0,0,1-5.858,2.442,8.3,8.3,0,0,1-4.716-1.48v11.1a2.413,2.413,0,0,0,2.406,2.406h38.5a2.413,2.413,0,0,0,2.406-2.406v-11.1a8.283,8.283,0,0,1-10.6-.962Zm0,0" transform="translate(0 -2713.438)"/></g></g></svg>