<svg xmlns="http://www.w3.org/2000/svg" width="70" height="70" viewBox="0 0 70 70"><defs><style>.a{fill:#fde7e7;opacity:0;}.b{fill:#6161d6;}</style></defs><g transform="translate(-1249 -698)"><rect class="a" width="70" height="70" transform="translate(1249 698)"/><g transform="translate(682.128 365.149)"><path class="b" d="M654.219,405.824,645,391.564a18.143,18.143,0,0,1-12.227,8.266l9.113,14.075c.3.464.643.4.759-.139l1.779-8.213a1.019,1.019,0,0,1,1.2-.779l8.156,1.69C654.322,406.577,654.52,406.289,654.219,405.824Z" transform="translate(-27.692 -24.366)"/><path class="b" d="M586.509,391.328l-9.292,14.379c-.3.465-.1.753.438.641l8.156-1.69a1.019,1.019,0,0,1,1.2.779l1.779,8.213c.117.541.459.6.759.139l9.129-14.1A18.146,18.146,0,0,1,586.509,391.328Z" transform="translate(0 -24.248)"/><path class="b" d="M626.71,357.64a15.085,15.085,0,1,0-15.086,15.085A15.086,15.086,0,0,0,626.71,357.64Zm-6.571-2.807-3.868,4.13a.24.24,0,0,0-.057.172l.7,5.613c.007.055-.028.081-.078.057l-5.123-2.4a.248.248,0,0,0-.182,0l-5.121,2.4c-.05.024-.086,0-.078-.057l.7-5.614a.242.242,0,0,0-.056-.172l-3.868-4.13c-.038-.041-.024-.082.03-.093l5.557-1.068a.247.247,0,0,0,.147-.107l2.731-4.954c.027-.048.071-.048.1,0l2.732,4.956a.252.252,0,0,0,.147.107l5.557,1.066C620.163,354.751,620.177,354.792,620.139,354.833Z" transform="translate(-9.676)"/></g></g></svg>