<svg xmlns="http://www.w3.org/2000/svg" width="70" height="70" viewBox="0 0 70 70"><defs><style>.a{fill:#fde7e7;opacity:0;}.b{fill:#6161d6;}</style></defs><g transform="translate(-601 -698)"><rect class="a" width="70" height="70" transform="translate(601 698)"/><g transform="translate(609 706)"><path class="b" d="M33.681,37.757a4.076,4.076,0,1,1,4.076-4.076A4.076,4.076,0,0,1,33.681,37.757Zm-3.9-11.292a8.213,8.213,0,1,1-3.316,3.316,4.716,4.716,0,0,1-4.835-.294,4.716,4.716,0,0,1-4.649,3.838h-1.2v1.493A2.066,2.066,0,0,0,17.5,36.853l2.681.47a13.911,13.911,0,0,0,1.384,3.342L20.013,42.9a2.066,2.066,0,0,0,.232,2.645l1.607,1.607a2.066,2.066,0,0,0,2.645.232l2.232-1.55a13.9,13.9,0,0,0,3.342,1.384l.47,2.681a2.066,2.066,0,0,0,2,1.694h2.273a2.066,2.066,0,0,0,2.03-1.7l.47-2.681a13.947,13.947,0,0,0,3.342-1.384l2.232,1.55a2.066,2.066,0,0,0,2.645-.232l1.607-1.607a2.066,2.066,0,0,0,.232-2.645l-1.55-2.232a13.88,13.88,0,0,0,1.384-3.342l2.681-.47a2.066,2.066,0,0,0,1.7-2.025V32.545a2.066,2.066,0,0,0-1.7-2.03l-2.681-.47A13.886,13.886,0,0,0,45.821,26.7l1.55-2.232a2.066,2.066,0,0,0-.232-2.645l-1.607-1.607a2.066,2.066,0,0,0-2.645-.232l-2.232,1.55a13.9,13.9,0,0,0-3.342-1.384l-.46-2.655a2.066,2.066,0,0,0-2.03-1.7h-1.5v1.235a4.716,4.716,0,0,1-3.838,4.649,4.716,4.716,0,0,1,.294,4.789ZM2,17.011V15.219a1.627,1.627,0,0,1,1.343-1.6l2.113-.372a10.956,10.956,0,0,1,1.09-2.635L5.311,8.855a1.627,1.627,0,0,1,.181-2.066L6.758,5.523a1.627,1.627,0,0,1,2.066-.181L10.58,6.577a10.941,10.941,0,0,1,2.635-1.09l.372-2.113A1.627,1.627,0,0,1,15.219,2h1.793a1.627,1.627,0,0,1,1.6,1.343l.372,2.113a10.951,10.951,0,0,1,2.645,1.1l1.756-1.235a1.627,1.627,0,0,1,2.066.181l1.266,1.266A1.627,1.627,0,0,1,26.9,8.834L25.664,10.59a10.951,10.951,0,0,1,1.09,2.635l2.113.372a1.627,1.627,0,0,1,1.343,1.6v1.793a1.627,1.627,0,0,1-1.343,1.6l-2.113.372a10.946,10.946,0,0,1-1.08,2.666l1.235,1.756a1.627,1.627,0,0,1-.181,2.066l-1.266,1.266A1.627,1.627,0,0,1,23.4,26.9L21.63,25.674A10.967,10.967,0,0,1,19,26.764l-.382,2.1a1.627,1.627,0,0,1-1.6,1.343H15.219a1.627,1.627,0,0,1-1.6-1.343l-.372-2.113a10.951,10.951,0,0,1-2.635-1.09L8.855,26.893a1.627,1.627,0,0,1-2.066-.181L5.508,25.457a1.627,1.627,0,0,1-.181-2.066L6.556,21.63A10.956,10.956,0,0,1,5.466,19l-2.113-.372A1.627,1.627,0,0,1,2,17.011Zm9.3-.894a4.84,4.84,0,1,0,4.82-4.82A4.84,4.84,0,0,0,11.3,16.118Z" transform="translate(0 0)"/></g></g></svg>