<svg xmlns="http://www.w3.org/2000/svg" width="70" height="70" viewBox="0 0 70 70"><defs><style>.a{fill:#fde7e7;opacity:0;}.b{fill:#6161d6;}</style></defs><g transform="translate(-1031 -696)"><rect class="a" width="70" height="70" transform="translate(1031 696)"/><g transform="translate(465.196 573.864)"><path class="b" d="M595.754,184.008c-2.2,2.2-4.951,3-6.154,1.8s-.4-3.955,1.8-6.156a17.944,17.944,0,0,1,3.748-2.764l-1.434-1.434a24.941,24.941,0,0,0-5.688,4.169l-.008.007a10.246,10.246,0,0,0-2.766,10.354.261.261,0,0,0,.165.166,10.126,10.126,0,0,0,10-2.436c.123-.1.245-.211.361-.326a25,25,0,0,0,4.179-5.7l-1.436-1.436A17.988,17.988,0,0,1,595.754,184.008Z" transform="translate(-2.861 -14.897)"/><path class="b" d="M614.738,183.447c2.911,4.354,1.791,9.339-.589,12.854a.475.475,0,0,0,.056.6l.012.012a.415.415,0,0,0,.445.093,17.556,17.556,0,0,0,6.063-3.962,17.323,17.323,0,0,0,4.534-14.671A57.954,57.954,0,0,1,614.738,183.447Z" transform="translate(-12.916 -15.901)"/><path class="b" d="M590.092,162.617a57.729,57.729,0,0,1,5.069-10.519,17.325,17.325,0,0,0-14.668,4.535,17.712,17.712,0,0,0-3.945,5.988.565.565,0,0,0,.117.6l.013.013a.3.3,0,0,0,.391.037C580.6,160.786,585.672,159.643,590.092,162.617Z" transform="translate(0 -6.804)"/><path class="b" d="M632.738,132.986c-1.621-.545-11.307-3.3-19.933,5.326a52.338,52.338,0,0,0-11.853,19.672l7.108,7.109a52.524,52.524,0,0,0,19.673-11.853c.011-.01.018-.021.028-.031a19.718,19.718,0,0,0,5.295-19.9A.5.5,0,0,0,632.738,132.986Zm-9.626,15.633a4.021,4.021,0,1,1,.039-5.725A4.049,4.049,0,0,1,623.112,148.62Z" transform="translate(-8.405)"/></g></g></svg>