<svg xmlns="http://www.w3.org/2000/svg" width="100" height="100" viewBox="0 0 100 100"><defs><style>.a{fill:#fff;opacity:0;}.b{fill:#f78557;fill-rule:evenodd;}</style></defs><g transform="translate(-1190 -784)"><rect class="a" width="100" height="100" transform="translate(1190 784)"/><g transform="translate(1208 794.279)"><path class="b" d="M631.03,108.04h36.09A11.316,11.316,0,1,0,665.2,85.569,16.868,16.868,0,0,0,632.588,88.8a9.685,9.685,0,1,0-1.558,19.243Z" transform="translate(-617.788 -74.308)"/><path class="b" d="M689.173,174.888h-6.311V195.41H678.2l7.815,11.527,7.814-11.527h-4.659Z" transform="translate(-653.914 -138.216)"/><path class="b" d="M629.055,183.983h-5.942v-4.659l-11.527,7.814,11.527,7.814v-4.659h12.253V174.888h-6.312Z" transform="translate(-611.587 -138.216)"/><path class="b" d="M746.244,187.139l-11.527-7.814v4.659h-5.942v-9.1h-6.311v15.407h12.253v4.659Z" transform="translate(-682.037 -138.216)"/></g></g></svg>