<svg xmlns="http://www.w3.org/2000/svg" width="100" height="100" viewBox="0 0 100 100"><defs><style>.a{fill:#fff;opacity:0;}.b{fill:#6161d6;fill-rule:evenodd;}</style></defs><g transform="translate(-630 -784)"><rect class="a" width="100" height="100" transform="translate(630 784)"/><g transform="translate(648 804.84)"><path class="b" d="M153.273,126.573H93.44a2.194,2.194,0,0,0-2.187,2.187v14.9a2.194,2.194,0,0,0,2.187,2.187h59.833a2.194,2.194,0,0,0,2.187-2.187v-14.9A2.194,2.194,0,0,0,153.273,126.573ZM106.506,140.2a.874.874,0,0,1-.871.871H97.193a.874.874,0,0,1-.871-.871v-7.985a.873.873,0,0,1,.871-.87h8.443a.873.873,0,0,1,.871.87Zm32.268-3.38a2.851,2.851,0,1,1,2.851-2.851A2.852,2.852,0,0,1,138.774,136.821Zm8.8,0a2.851,2.851,0,1,1,2.851-2.851A2.852,2.852,0,0,1,147.574,136.821Z" transform="translate(-91.253 -126.573)"/><path class="b" d="M153.273,183.1H93.44a2.194,2.194,0,0,0-2.187,2.187v14.9a2.194,2.194,0,0,0,2.187,2.187h27.382v4.9a5.772,5.772,0,0,0-2.62,2.62H91.253v5.069H118.2a5.744,5.744,0,0,0,10.308,0h26.95v-5.069H128.511a5.772,5.772,0,0,0-2.62-2.619v-4.9h27.382a2.194,2.194,0,0,0,2.187-2.187v-14.9A2.194,2.194,0,0,0,153.273,183.1Zm-29.917,31.859a2.534,2.534,0,1,1,2.535-2.534A2.535,2.535,0,0,1,123.356,214.961Zm-16.85-18.232a.874.874,0,0,1-.871.871H97.193a.874.874,0,0,1-.871-.871v-7.985a.873.873,0,0,1,.871-.871h8.443a.874.874,0,0,1,.871.871Zm32.268-3.379a2.851,2.851,0,1,1,2.851-2.851A2.852,2.852,0,0,1,138.774,193.35Zm8.8,0a2.851,2.851,0,1,1,2.851-2.851A2.852,2.852,0,0,1,147.574,193.35Z" transform="translate(-91.253 -160.01)"/></g></g></svg>