<svg xmlns="http://www.w3.org/2000/svg" width="425.555" height="425.555" viewBox="0 0 425.555 425.555"><defs><style>.a{fill:#2c3f79;}</style></defs><path class="a" d="M612.829,436.149l-.045-59.827a152.823,152.823,0,0,0,47.234-7.473l18.521,56.89A212.592,212.592,0,0,1,612.829,436.149ZM547.1,425.864a211.859,211.859,0,0,1-59.343-30.188L522.9,347.261a152.332,152.332,0,0,0,42.607,21.677Zm190.7-30.417-35.233-48.355a153.6,153.6,0,0,0,33.842-33.872l48.39,35.188A213.526,213.526,0,0,1,737.808,395.447ZM440.677,348.732a211.825,211.825,0,0,1-30.352-59.244L467.2,270.917A152.237,152.237,0,0,0,489,313.454ZM815.05,289.094l-56.906-18.462a153.085,153.085,0,0,0,7.429-47.258v-.728H825.4v.728A212.653,212.653,0,0,1,815.05,289.094ZM459.672,223.738l-59.827-.055a213.224,213.224,0,0,1,10.221-65.63L467.011,176.4a152.839,152.839,0,0,0-7.339,46.73ZM757.96,175.547a152.356,152.356,0,0,0-21.892-42.5l48.251-35.373a211.936,211.936,0,0,1,30.467,59.179ZM488.643,133.773,440.188,98.684a213.5,213.5,0,0,1,46.9-47.129l35.328,48.28A153.809,153.809,0,0,0,488.643,133.773ZM702.091,99.308a152.174,152.174,0,0,0-42.646-21.593l18.3-56.96a211.773,211.773,0,0,1,59.393,30.063ZM564.938,77.994,546.312,21.139a212.562,212.562,0,0,1,65.68-10.545l.18,59.827A152.961,152.961,0,0,0,564.938,77.994Z" transform="translate(-399.845 -10.594)"/></svg>