<svg xmlns="http://www.w3.org/2000/svg" width="41.165" height="44.61" viewBox="0 0 41.165 44.61"><defs><style>.a{fill:#6161d6;}</style></defs><g transform="translate(478.335 54.056)"><path class="a" d="M36.092,19.329V15.011h-.908a1.049,1.049,0,0,1-.858-1.662l3.5-4.876a1.049,1.049,0,0,1,1.707,0l3.491,4.871a1.053,1.053,0,0,1-.853,1.662h-.908v7.827A24.307,24.307,0,0,0,36.092,19.329Zm-1.4,12.19a1.816,1.816,0,0,0-2.433-.132l-6.406,5.135A4.54,4.54,0,1,0,29.7,40.362l5.13-6.41A1.816,1.816,0,0,0,34.694,31.518ZM14.4,19.329V15.011h.908a1.053,1.053,0,0,0,.858-1.662l-3.5-4.871a1.049,1.049,0,0,0-1.707,0l-3.5,4.876a1.049,1.049,0,0,0,.853,1.662H9.23v7.818a24.3,24.3,0,0,1,5.171-3.5Zm10.846-2.574A24.319,24.319,0,0,1,28.624,17V10.049h1.162A1.362,1.362,0,0,0,30.9,7.879l-4.54-6.356a1.362,1.362,0,0,0-2.229,0L19.59,7.879a1.362,1.362,0,0,0,1.117,2.17h1.18V17a24.288,24.288,0,0,1,3.36-.241ZM6.556,42.877h4.617a1.911,1.911,0,1,0,0-3.818H8.9a16.389,16.389,0,0,1,3.446-8.3l1.625,1.625a1.911,1.911,0,0,0,2.7-2.7L15.05,28.055a16.394,16.394,0,0,1,8.3-3.446v2.306a1.911,1.911,0,0,0,3.818,0V24.6A16.5,16.5,0,0,1,41.59,39.055H39.32a1.911,1.911,0,0,0,0,3.818h4.6a1.916,1.916,0,0,0,1.911-1.911,20.583,20.583,0,1,0-41.165,0h0a1.889,1.889,0,0,0,1.889,1.916Z" transform="translate(-483 -55)"/></g></svg>