<svg xmlns="http://www.w3.org/2000/svg" width="41.404" height="41.401" viewBox="0 0 41.404 41.401"><defs><style>.a{fill:#6161d6;}</style></defs><g transform="translate(0.001 -68.636)"><path class="a" d="M1,40.217a2.136,2.136,0,0,1,.042-.422,2.175,2.175,0,0,1,.321-.777,2.111,2.111,0,0,1,.266-.329,2.162,2.162,0,0,1,3.315,2.74,2.111,2.111,0,0,1-.266.329,2.154,2.154,0,0,1-3.049,0,2.111,2.111,0,0,1-.266-.329,2.179,2.179,0,0,1-.321-.777A2.132,2.132,0,0,1,1,40.217ZM3.153,14.574A2.158,2.158,0,1,0,1,12.416a2.158,2.158,0,0,0,2.154,2.158Zm0,9.269a2.154,2.154,0,1,0-1.524-.632,2.154,2.154,0,0,0,1.524.632Zm0,9.269A2.154,2.154,0,1,0,1,30.953a2.154,2.154,0,0,0,2.154,2.158ZM1.042,2.729a2.111,2.111,0,0,0,0,.845,2.17,2.17,0,0,0,.321.777,2.111,2.111,0,0,0,.266.329A2.144,2.144,0,0,0,5.264,3.557a2.111,2.111,0,0,0,0-.845A2.154,2.154,0,0,0,1.629,1.623a2.111,2.111,0,0,0-.266.329,2.208,2.208,0,0,0-.2.372,2.183,2.183,0,0,0-.122.405Zm40.38,35.7a2.192,2.192,0,0,0-.777-.321,2.111,2.111,0,0,0-.845,0,2.155,2.155,0,0,0-.773,3.906,2.2,2.2,0,0,0,.372.2,2.175,2.175,0,0,0,.422.122,2.111,2.111,0,0,0,.845,0,2.175,2.175,0,0,0,.777-.321,2.112,2.112,0,0,0,.329-.27,2.154,2.154,0,0,0-.329-3.315Zm-17.574,1.79a2.154,2.154,0,1,0-.631,1.527,2.158,2.158,0,0,0,.631-1.527Zm-9.269,0a2.158,2.158,0,1,0-2.158,2.158,2.158,2.158,0,0,0,2.158-2.158Zm16.379-2.154a2.158,2.158,0,1,0,2.154,2.154A2.158,2.158,0,0,0,30.958,38.064Zm7.672-29.63A1.934,1.934,0,0,0,36.7,6.5h-4.29a1.934,1.934,0,0,0-1.934,1.934V32.925a1.934,1.934,0,0,0,1.934,1.934H36.7a1.934,1.934,0,0,0,1.934-1.934Zm-23.9,15.877H10.45a1.934,1.934,0,0,0-1.934,1.93v6.684a1.934,1.934,0,0,0,1.934,1.934h4.286a1.934,1.934,0,0,0,1.93-1.934v-6.68a1.934,1.934,0,0,0-1.93-1.934Zm12.917,8.614V18.58a1.934,1.934,0,0,0-1.934-1.934h-4.29a1.934,1.934,0,0,0-1.934,1.934V32.925a1.934,1.934,0,0,0,1.934,1.934h4.29a1.934,1.934,0,0,0,1.934-1.934Z" transform="translate(-1 67.647)"/></g></svg>