<svg xmlns="http://www.w3.org/2000/svg" width="41.166" height="44.458" viewBox="0 0 41.166 44.458"><defs><style>.a{fill:#6161d6;}</style></defs><g transform="translate(728.405 411.566)"><path class="a" d="M29.087,21.189l1.03-.059,1.048-.059a1.22,1.22,0,0,0,.885-1.983L27.68,13.644a1.22,1.22,0,0,0-1.983.113l-3.738,5.9a1.22,1.22,0,0,0,1.1,1.874l1.048-.059,1.043-.05A11.342,11.342,0,0,1,16.2,33.053a6.052,6.052,0,0,0-5.535-3.629H10.6a6.045,6.045,0,1,0,.073,12.091h.068A6.048,6.048,0,0,0,16.52,37,15.289,15.289,0,0,0,29.087,21.189ZM10.676,37.571h0a2.1,2.1,0,0,1,0-4.2h0a2.1,2.1,0,1,1,0,4.2ZM7.836,19.819l1.524-1.524L7.836,16.77a1.974,1.974,0,0,1,2.79-2.786l1.52,1.538L13.671,14a1.974,1.974,0,0,1,2.79,2.786l-1.524,1.524,1.524,1.524a1.974,1.974,0,0,1-2.79,2.786l-1.524-1.524-1.524,1.524a1.974,1.974,0,0,1-2.79-2.786Zm28.8,19.236-1.524,1.524L36.631,42.1a1.97,1.97,0,0,1-2.786,2.786l-1.524-1.524L30.8,44.889A1.97,1.97,0,0,1,28.012,42.1l1.524-1.524-1.524-1.524A1.97,1.97,0,0,1,30.8,36.269l1.524,1.524,1.524-1.524a1.97,1.97,0,0,1,2.786,2.786ZM45.183,22.6l-1.524,1.538,1.524,1.524A1.97,1.97,0,1,1,42.4,28.452l-1.524-1.524-1.524,1.511a1.97,1.97,0,0,1-2.786-2.786l1.524-1.511-1.524-1.524a1.97,1.97,0,1,1,2.786-2.786l1.524,1.524L42.4,19.832a1.97,1.97,0,0,1,2.786,2.786ZM29.563,7.415l1.529-1.524-1.529-1.52a1.97,1.97,0,1,1,2.786-2.786L33.873,3.11,35.4,1.585a1.97,1.97,0,0,1,2.786,2.786L36.659,5.9,38.183,7.42A1.97,1.97,0,1,1,35.4,10.205L33.873,8.681l-1.524,1.524A1.97,1.97,0,1,1,29.563,7.42Z" transform="translate(-733 -412.574)"/></g></svg>