<svg xmlns="http://www.w3.org/2000/svg" width="196" height="106" viewBox="0 0 196 106"><defs><style>.a{fill:#ffc6c6;opacity:0;}.b{fill:#b2b2b2;}</style></defs><g transform="translate(-1186 -5917)"><rect class="a" width="196" height="106" transform="translate(1186 5917)"/><g transform="translate(1202.099 5961.438)"><path class="b" d="M94.772-1.308A9.662,9.662,0,0,0,89.9-.089c0-4.336,0-8.264.136-9.619L80.952-8.083v.813l.948.135c1.218.271,1.627.948,1.9,2.574.273,3.252.136,20.6,0,23.441a35.238,35.238,0,0,0,7.589.949c7.181,0,11.517-4.472,11.517-11.518,0-5.555-3.523-9.62-8.13-9.62ZM91.656,18.338A6.109,6.109,0,0,1,90.03,18.2c-.136-1.9-.271-9.892-.136-16.937A5.992,5.992,0,0,1,91.926.86c2.983,0,4.609,3.523,4.609,7.857,0,5.422-2.034,9.621-4.879,9.621Zm-44.85-27.5H22.958v1.219l1.355.135c1.761.271,2.439,1.354,2.709,3.929a156.985,156.985,0,0,1,0,17.885c-.271,2.575-.948,3.795-2.709,3.929l-1.355.272v1.084H38.269V18.2l-1.626-.272C34.882,17.8,34.2,16.576,33.934,14c-.136-1.762-.272-4.608-.272-8.13l3.252.135c2.033,0,2.98,1.626,3.387,3.929h1.22V.318H40.3c-.408,2.3-1.354,3.929-3.387,3.929l-3.251.136c0-4.607.135-8.943.272-11.517h4.742c3.66,0,5.556,2.3,6.911,6.368l1.355-.407-.136-7.994Z"/><path class="b" d="M60.369.661c6.775,0,10.163,4.607,10.163,10.7,0,5.826-3.794,10.706-10.569,10.706S49.8,17.463,49.8,11.365c0-5.826,3.793-10.7,10.569-10.7Zm-.407,1.355c-2.981,0-3.794,4.065-3.794,9.349,0,5.149,1.355,9.349,4.066,9.349,3.114,0,3.929-4.065,3.929-9.349C64.162,6.217,62.808,2.017,59.962,2.017ZM110.5,11.5c0-5.555,3.523-10.84,10.433-10.84,5.689,0,8.4,4.2,8.4,9.756h-12.6c-.136,5.013,2.3,8.672,7.181,8.672a6.961,6.961,0,0,0,4.608-1.49l.541.677a10.15,10.15,0,0,1-8.129,3.795c-6.1,0-10.433-4.336-10.433-10.569Zm6.232-2.574,6.368-.136c0-2.71-.407-6.775-2.71-6.775S116.868,5.81,116.734,8.927Zm28.728-7.181A16.559,16.559,0,0,0,139.23.661c-5.012,0-8.131,2.98-8.131,6.5s2.3,5.013,5.557,6.1c3.386,1.218,4.336,2.167,4.336,3.793a3.138,3.138,0,0,1-3.388,3.116c-2.574,0-4.472-1.49-5.962-5.555l-.949.272.136,5.962a21.411,21.411,0,0,0,7.181,1.22c5.285,0,8.673-2.711,8.673-6.911,0-2.846-1.491-4.471-5.014-5.827-3.795-1.49-5.149-2.438-5.149-4.2a2.815,2.815,0,0,1,2.847-2.981c2.437,0,4.063,1.491,5.285,5.149l.948-.271-.139-5.284ZM88.145,1.2c-2.3-1.354-6.368-.678-8.536,4.2L79.744.662,70.667,2.424v.813l.948.135c1.221.136,1.761.813,1.9,2.575a114.071,114.071,0,0,1,0,11.789c-.136,1.624-.677,2.437-1.9,2.574l-.948.136v1.084h12.6V20.445l-1.626-.136c-1.354-.136-1.761-.949-1.9-2.574A96.611,96.611,0,0,1,79.609,6.76c.677-.949,3.658-1.761,6.368,0L88.145,1.2Z" transform="translate(-5.839 -2.24)"/></g></g></svg>