<svg xmlns="http://www.w3.org/2000/svg" width="745.18" height="562.022" viewBox="0 0 745.18 562.022"><defs><style>.a{fill:#2c3f79;}</style></defs><g transform="translate(745.18 682.084) rotate(180)"><path class="a" d="M627.65,338.713h-1.7V121.762H0v-1.7H627.65Z"/><rect class="a" width="726.811" height="1.7" transform="translate(0 518.993)"/><path class="a" d="M355.4,585.523h-1.7V259.671H0v-1.7H355.4Z" transform="translate(0 96.561)"/><path class="a" d="M555.421,518.592H0v-1.7H553.721V297.64h1.7Z" transform="translate(0 124.337)"/><path class="a" d="M263.984,360.861h-1.7V234.441H344.81v1.7H263.984Z" transform="translate(183.647 80.086)"/><path class="a" d="M436.526,368.716a10.035,10.035,0,1,1,10.033-10.035A10.046,10.046,0,0,1,436.526,368.716Zm0-16.669a6.634,6.634,0,1,0,6.632,6.634A6.642,6.642,0,0,0,436.526,352.047Z" transform="translate(298.621 160.051)"/><path class="a" d="M372.8,267.736A10.034,10.034,0,1,1,382.834,257.7,10.045,10.045,0,0,1,372.8,267.736Zm0-16.669a6.634,6.634,0,1,0,6.636,6.634A6.64,6.64,0,0,0,372.8,251.067Z" transform="translate(254.002 89.347)"/><path class="a" d="M330.315,306.9a10.035,10.035,0,1,1,10.034-10.034A10.046,10.046,0,0,1,330.315,306.9Zm0-16.669a6.634,6.634,0,1,0,6.634,6.634A6.642,6.642,0,0,0,330.315,290.236Z" transform="translate(224.255 116.772)"/><path class="a" d="M157.071,312.229a8.334,8.334,0,1,1-8.334-8.334A8.333,8.333,0,0,1,157.071,312.229Z" transform="translate(98.307 128.717)"/><path class="a" d="M274.551,317.131a8.334,8.334,0,1,1-8.334-8.334A8.333,8.333,0,0,1,274.551,317.131Z" transform="translate(180.564 132.149)"/><path class="a" d="M327.492,238.373a8.334,8.334,0,1,1-8.334-8.334A8.333,8.333,0,0,1,327.492,238.373Z" transform="translate(217.633 77.004)"/><circle class="a" cx="5.893" cy="5.893" r="5.893" transform="translate(440.888 355.382)"/><circle class="a" cx="5.893" cy="5.893" r="5.893" transform="translate(295.317 349.489)"/><path class="a" d="M216.856,393.252a5.893,5.893,0,1,1-5.893-5.895A5.893,5.893,0,0,1,216.856,393.252Z" transform="translate(143.586 187.155)"/><circle class="a" cx="5.893" cy="5.893" r="5.893" transform="translate(626.801 513.951)"/></g></svg>