<svg xmlns="http://www.w3.org/2000/svg" width="40.047" height="38.41" viewBox="0 0 40.047 38.41"><defs><style>.a{fill:#6161d6;}</style></defs><g transform="translate(177.004 103.41)"><path class="a" d="M32.273,20.632l-3.6,4.495a3.205,3.205,0,1,1-2.709-2.689l4.495-3.6a1.279,1.279,0,0,1,1.8,1.8ZM22.307,37.156l-.78,1.348a4.5,4.5,0,0,1-2.141,1.884,15.977,15.977,0,0,0,5.6,1.022h0A16.075,16.075,0,0,0,41.042,25.335a15.871,15.871,0,0,0-3.269-9.717l1.782-1.782a2.072,2.072,0,1,0-2.926-2.93l-1.765,1.765A15.977,15.977,0,0,0,27.075,9.4V7.156h1.581A2.078,2.078,0,0,0,28.636,3H21.33a2.072,2.072,0,0,0,0,4.139h1.581V9.415a15.977,15.977,0,0,0-7.788,3.269l-1.765-1.765a2.072,2.072,0,1,0-2.926,2.93l1.782,1.782a16.234,16.234,0,0,0-1.459,2.284h.458a4.5,4.5,0,0,1,3.416,1.577A11.923,11.923,0,0,1,24.983,13.42h0a11.917,11.917,0,1,1,0,23.835h0a11.907,11.907,0,0,1-2.578-.286C22.372,37.03,22.344,37.1,22.307,37.156Zm-17.06-.143-1.573.572a1.41,1.41,0,0,1-1.708-.621l-.78-1.348a1.414,1.414,0,0,1,.315-1.79l1.283-1.075a7.858,7.858,0,0,1,0-3.13L1.5,28.547a1.414,1.414,0,0,1-.315-1.79l.78-1.348a1.414,1.414,0,0,1,1.708-.621l1.577.576A7.764,7.764,0,0,1,7.944,23.8l.29-1.634a1.414,1.414,0,0,1,1.4-1.185h1.577A1.414,1.414,0,0,1,12.6,22.148l.29,1.634A7.764,7.764,0,0,1,15.6,25.347l1.577-.576a1.41,1.41,0,0,1,1.708.621l.78,1.348a1.414,1.414,0,0,1-.315,1.79L18.07,29.605a7.866,7.866,0,0,1,0,3.13l1.283,1.075a1.41,1.41,0,0,1,.315,1.79l-.78,1.348a1.414,1.414,0,0,1-1.708.621L15.6,36.993a7.764,7.764,0,0,1-2.709,1.565l-.29,1.634a1.414,1.414,0,0,1-1.389,1.218H9.636a1.414,1.414,0,0,1-1.389-1.169l-.29-1.634a7.764,7.764,0,0,1-2.705-1.6ZM7.47,31.195A2.946,2.946,0,1,0,10.4,28.24,2.946,2.946,0,0,0,7.47,31.195Z" transform="translate(-178 -106.41)"/></g></svg>