<svg xmlns="http://www.w3.org/2000/svg" width="743.252" height="743.011" viewBox="0 0 743.252 743.011"><defs><style>.a{fill:#2c3f79;}</style></defs><path class="a" d="M270.646,1131.831c-4.626,0-9.337-.086-14-.257l1-27.262c8.843.325,17.723.314,26.4-.016l1.048,27.257C280.319,1131.738,275.459,1131.831,270.646,1131.831Zm-42.377-2.389c-9.387-1.066-18.85-2.51-28.128-4.29l5.14-26.793c8.6,1.651,17.368,2.989,26.07,3.976Zm85.186-.05-3.112-27.1c8.725-1,17.493-2.351,26.059-4.008l5.181,26.784C332.335,1126.855,322.871,1128.31,313.455,1129.392Zm-141.046-10.687c-9.121-2.494-18.257-5.374-27.15-8.561l9.2-25.682c8.236,2.951,16.7,5.62,25.143,7.929Zm196.89-.114-7.225-26.307c8.436-2.316,16.891-4.994,25.134-7.957L396.44,1110C387.54,1113.2,378.408,1116.088,369.3,1118.592ZM118.825,1099.5c-8.63-3.872-17.218-8.123-25.527-12.642l13.035-23.963c7.7,4.187,15.654,8.125,23.649,11.708Zm303.986-.159-11.18-24.882c7.982-3.585,15.922-7.529,23.6-11.714l13.06,23.949C440,1091.221,431.427,1095.476,422.811,1099.346ZM68.823,1072.3c-7.932-5.14-15.768-10.65-23.286-16.381l16.541-21.694c6.965,5.308,14.226,10.419,21.578,15.181Zm403.909-.175-14.858-22.879c7.345-4.769,14.6-9.88,21.556-15.192l16.554,21.683C488.478,1061.472,480.655,1066.987,472.733,1072.129ZM23.575,1037.811c-7.054-6.283-13.956-12.919-20.514-19.723L22.7,999.156c6.083,6.306,12.483,12.46,19.021,18.284Zm494.353-.189-18.159-20.358c6.531-5.826,12.924-11.98,19-18.3l19.657,18.914C531.871,1024.7,524.974,1031.339,517.929,1037.623ZM-15.9,996.864c-6.015-7.277-11.83-14.881-17.279-22.6l22.285-15.731c5.051,7.154,10.441,14.206,16.018,20.951Zm573.265-.218-21.035-17.368c5.574-6.754,10.96-13.811,16.009-20.974l22.3,15.713C569.2,981.747,563.386,989.36,557.368,996.646ZM-48.685,950.4c-4.844-8.118-9.43-16.518-13.631-24.968l24.427-12.144c3.89,7.827,8.141,15.611,12.631,23.131Zm638.825-.277L566.7,936.169c4.49-7.538,8.736-15.331,12.624-23.172l24.438,12.121C599.57,933.582,594.985,942,590.141,950.127ZM-73.989,899.5c-3.546-8.764-6.793-17.773-9.653-26.784l26-8.25c2.648,8.345,5.656,16.691,8.939,24.8Zm689.42-.373-25.3-10.2c3.276-8.125,6.277-16.482,8.918-24.841l26.011,8.218C622.21,881.327,618.968,890.35,615.431,899.125ZM-91.2,845.268c-2.151-9.186-3.974-18.589-5.417-27.941l26.959-4.162c1.337,8.666,3.026,17.373,5.019,25.884Zm723.784-.418-26.566-6.19c1.982-8.518,3.662-17.227,4.988-25.889l26.966,4.128C636.541,826.25,634.729,835.654,632.586,844.85ZM-99.875,789.06c-.721-9.391-1.093-18.953-1.1-28.426l27.28-.032c.011,8.789.355,17.659,1.025,26.366Zm741.077-.437L614,786.567c.659-8.716.993-17.584.993-26.364l0-.764,27.28-.111,0,.875C642.272,769.667,641.911,779.228,641.2,788.624Zm-713.94-54.387-27.2-2.026c.7-9.439,1.778-18.953,3.194-28.276l26.971,4.1C-71.09,716.673-72.086,725.489-72.739,734.237Zm686.676-1.189c-.682-8.748-1.71-17.562-3.051-26.193l26.955-4.192c1.448,9.316,2.557,18.823,3.294,28.264ZM-64.816,682.139l-26.577-6.158c2.132-9.2,4.653-18.441,7.491-27.464l26.025,8.186C-60.508,665.062-62.843,673.621-64.816,682.139Zm670.652-1.159c-2-8.518-4.367-17.068-7.024-25.411l25.991-8.28c2.871,9.007,5.424,18.241,7.588,27.439ZM-48.989,631.856-74.3,621.681c3.528-8.78,7.445-17.53,11.637-26l24.452,12.094C-42.094,615.622-45.72,623.724-48.989,631.856Zm638.836-1.078c-3.294-8.113-6.943-16.19-10.844-24.013l24.413-12.174c4.213,8.445,8.15,17.166,11.705,25.92Zm-615.462-46.2-23.452-13.933c4.826-8.127,10.032-16.168,15.47-23.906l22.319,15.688C-16.317,569.6-21.141,577.053-25.615,584.582Zm591.961-.934c-4.492-7.509-9.334-14.94-14.392-22.087L574.223,545.8c5.458,7.718,10.685,15.736,15.531,23.836ZM4.709,541.439-16.351,524.1c6.015-7.3,12.378-14.456,18.921-21.265l19.673,18.9C16.182,528.038,10.281,534.672,4.709,541.439Zm531.2-.814c-5.59-6.745-11.508-13.356-17.593-19.655l19.619-18.955c6.563,6.795,12.951,13.926,18.98,21.2ZM41.23,503.407,23.045,483.069c7.043-6.3,14.417-12.4,21.922-18.143l16.579,21.662C54.592,491.91,47.756,497.569,41.23,503.407Zm458.044-.7c-6.54-5.815-13.394-11.453-20.371-16.759l16.511-21.717c7.529,5.729,14.927,11.814,21.985,18.086ZM83.081,471.376,68.2,448.508c7.925-5.154,16.141-10.066,24.425-14.592l13.085,23.936C98.035,462.048,90.422,466.6,83.081,471.376Zm374.225-.589c-7.368-4.76-15-9.289-22.7-13.465l13.012-23.977c8.3,4.506,16.541,9.393,24.488,14.531ZM129.3,446.11l-11.212-24.87c8.625-3.887,17.493-7.482,26.364-10.68l9.257,25.659C145.5,439.183,137.286,442.511,129.3,446.11Zm281.65-.471c-7.988-3.571-16.229-6.877-24.493-9.827l9.175-25.691c8.921,3.187,17.818,6.756,26.446,10.612ZM178.834,428.228l-7.252-26.3c9.1-2.512,18.423-4.7,27.707-6.506L204.5,422.2C195.9,423.875,187.265,425.9,178.834,428.228Zm182.472-.314c-8.441-2.3-17.082-4.3-25.684-5.938l5.113-26.8c9.289,1.771,18.621,3.93,27.737,6.413Zm-130.752-9.75-3.137-27.1c9.377-1.087,18.921-1.825,28.364-2.2l1.073,27.257C248.1,416.473,239.249,417.159,230.554,418.164Zm79-.134c-8.7-.977-17.548-1.632-26.3-1.946l.978-27.264c9.446.341,18.989,1.046,28.371,2.1Z" transform="translate(100.98 -388.82)"/></svg>