<svg id="Groupe_1583" data-name="Groupe 1583" xmlns="http://www.w3.org/2000/svg" width="64.207" height="68.721" viewBox="0 0 64.207 68.721">
  <path id="Tracé_1630" data-name="Tracé 1630" d="M631.03,108.04h36.09A11.316,11.316,0,1,0,665.2,85.569,16.868,16.868,0,0,0,632.588,88.8a9.685,9.685,0,1,0-1.558,19.243Z" transform="translate(-617.788 -74.308)" fill="#6161d6" fill-rule="evenodd"/>
  <path id="Tracé_1631" data-name="Tracé 1631" d="M689.173,174.888h-6.311V195.41H678.2l7.815,11.527,7.814-11.527h-4.659Z" transform="translate(-653.914 -138.216)" fill="#6161d6" fill-rule="evenodd"/>
  <path id="Tracé_1632" data-name="Tracé 1632" d="M629.055,183.983h-5.942v-4.659l-11.527,7.814,11.527,7.814v-4.659h12.253V174.888h-6.312Z" transform="translate(-611.587 -138.216)" fill="#6161d6" fill-rule="evenodd"/>
  <path id="Tracé_1633" data-name="Tracé 1633" d="M746.244,187.139l-11.527-7.814v4.659h-5.942v-9.1h-6.311v15.407h12.253v4.659Z" transform="translate(-682.037 -138.216)" fill="#6161d6" fill-rule="evenodd"/>
</svg>
