<svg xmlns="http://www.w3.org/2000/svg" width="1019.488" height="1178.515" viewBox="0 0 1019.488 1178.515">
  <g id="Groupe_10987" data-name="Groupe 10987" transform="translate(113.733 20.685)">
    <path id="Tracé_17661" data-name="Tracé 17661" d="M879.233,776.906V687.855a4.067,4.067,0,1,0-4.614-6.582l-78.474-45.315a4.025,4.025,0,0,0-3.1-5.371l-.114-91.507a4.026,4.026,0,0,0,3.087-5.382l76.853-44.682a7.041,7.041,0,1,0,6.371-11.05l.111-88.652a4.072,4.072,0,1,0-4-6.409L796.14,336.916a4.027,4.027,0,0,0,.255-1.375,4.072,4.072,0,0,0-3.353-4.005l-.114-91.531a4.068,4.068,0,1,0-3.835-6.485l-76.642-44.634a6.969,6.969,0,0,0,.49-2.556,7.052,7.052,0,0,0-12.929-3.9L626.17,139.488a7.325,7.325,0,0,0,.83-3.337,7.421,7.421,0,1,0-14.842,0,7.337,7.337,0,0,0,.876,3.424l-73.85,42.577a7.045,7.045,0,0,0-5.059-3.172V90.344a4.074,4.074,0,1,0-4.075-6.459L453.994,39.722c0-.091.026-.176.026-.269a7.024,7.024,0,0,0-11.278-5.622L367.318-9.829a7.329,7.329,0,0,0,.883-3.436,7.428,7.428,0,0,0-7.422-7.42,7.428,7.428,0,0,0-7.42,7.42,7.327,7.327,0,0,0,.82,3.319L280.2,32.764A7.044,7.044,0,0,0,267.912,39.5L191.277,83.755a4.068,4.068,0,1,0-3.966,6.588V182a4.059,4.059,0,0,0-2.67,1.739l-82.784-47.867L21.709,182.081a7.4,7.4,0,1,0-6.649,11.286v92.422l80.436,46.5a6.836,6.836,0,0,0-.094,6.065l-76.88,44.261a4.067,4.067,0,1,0-3.826,6.628v91.795a4.074,4.074,0,0,0-3.348,4,4.032,4.032,0,0,0,.252,1.366l-79.2,45.728a4.063,4.063,0,0,0-3.278-1.674,4.078,4.078,0,0,0-4.077,4.078,4.073,4.073,0,0,0,3.347,4v91a4.073,4.073,0,0,0-3.347,4,4.078,4.078,0,0,0,4.077,4.078,4.035,4.035,0,0,0,2.507-.885L8.958,681.22a7.012,7.012,0,0,0,5.738,9.788v88.436a4.061,4.061,0,0,0,.364,8.044v96.075l80.1,46.241a7.334,7.334,0,0,0-.848,3.372,7.42,7.42,0,0,0,14.84,0,7.336,7.336,0,0,0-.85-3.377l80.1-46.308V790.705a7.052,7.052,0,0,0,5.32-2.894l76.9,44.4a4.019,4.019,0,0,0,2.991,5.291V929.35a4.072,4.072,0,1,0,3.885,6.556l79.321,45.671a4.012,4.012,0,0,0-.247,1.363,4.071,4.071,0,0,0,7.4,2.348l75.691,43.883a7.421,7.421,0,1,0,14.585,0l75.691-43.884a4.071,4.071,0,0,0,7.4-2.348,3.973,3.973,0,0,0-.159-1.064l79.539-45.856a4.067,4.067,0,0,0,6.547-4.608L700,887.428a7.4,7.4,0,1,0,6.254-11.779V787.922a4.082,4.082,0,0,0,2.682-1.282l79.406,45.715a4.078,4.078,0,1,0,7.71,0c6.956-4.005,23.306-13.419,39.664-22.844,10.788-6.215,21.577-12.431,29.669-17.1,3.133-1.807,5.527-3.19,7.4-4.277a7.035,7.035,0,1,0,6.447-11.226ZM791.294,638.522l.493,88.259a7.41,7.41,0,0,0-7.015,7.379,7.33,7.33,0,0,0,.856,3.386l-76.367,43.966a4.06,4.06,0,0,0-2.645-1.632V691.2a7,7,0,0,0,5.713-9.838l76.89-44.148A4.08,4.08,0,0,0,791.294,638.522Zm.9,88.948a6.69,6.69,0,1,1-6.692,6.69A6.7,6.7,0,0,1,792.194,727.47ZM616.243,930.776l-76.635-43.933a7.352,7.352,0,0,0-5.971-11.188V790.907a7.046,7.046,0,0,0,5.5-2.969l76.559,44.519a4.008,4.008,0,0,0,3.157,5.172v91.494A4.064,4.064,0,0,0,616.243,930.776ZM353.965,883.04a6.691,6.691,0,1,1,6.692,6.69A6.7,6.7,0,0,1,353.965,883.04Zm7.056,95.859V890.424a7.353,7.353,0,0,0,6.339-10.513l76.2-43.8a4.063,4.063,0,0,0,2.674,1.748v88.515a7,7,0,0,0-5.7,9.865l-76.783,44.082A4.083,4.083,0,0,0,361.021,978.9ZM101.733,829.581a4.053,4.053,0,0,0-3.093,1.449L19.126,785.123a3.991,3.991,0,0,0,.376-1.676,4.035,4.035,0,0,0-.3-1.512l76.3-43.82a7.386,7.386,0,0,0,12.463,0l73.81,42.391a6.811,6.811,0,0,0-.155,6.053l-76.8,44.467A4.048,4.048,0,0,0,101.733,829.581ZM22.48,684.026a7.005,7.005,0,0,0-.587-2.806l76.295-43.881a4.043,4.043,0,0,0,7.086.009l78.943,45.642a4.021,4.021,0,0,0-.253,1.369,4.071,4.071,0,0,0,3.348,4v88.315a7.044,7.044,0,0,0-5.189,3.189l-73.809-42.391a7.328,7.328,0,0,0,.839-3.359,7.42,7.42,0,1,0-14.84,0,7.329,7.329,0,0,0,.841,3.359L18.871,781.286a4.062,4.062,0,0,0-2.715-1.82V691.007A7.029,7.029,0,0,0,22.48,684.026ZM102.1,527.518v-92.17l80.13-46.328a7.045,7.045,0,0,0,5.084,3.216V480.8a4.063,4.063,0,0,0-3.037,5.559L107.43,530.429A7.048,7.048,0,0,0,102.1,527.518Zm179-391.225a6.691,6.691,0,1,1-6.69-6.69A6.7,6.7,0,0,1,281.1,136.294Zm.73,0a7.407,7.407,0,0,0-7-7.378L274.723,43.8a7.05,7.05,0,0,0,5.508-3.067L356.941,85.15a4.021,4.021,0,0,0,3.1,5.327l-.109,88.5a7.043,7.043,0,0,0-5.1,3.227L281,139.631A7.332,7.332,0,0,0,281.83,136.294Zm164.88-89.81-.112,89.6L366.667,182.1a7.046,7.046,0,0,0-5.272-3.139l.111-88.485a4.074,4.074,0,0,0,3.353-4.005,4.034,4.034,0,0,0-.24-1.323L440.21,41.383A7.031,7.031,0,0,0,446.71,46.484ZM360.78,193.036a7.024,7.024,0,0,0,5.655-2.873l76.7,44.283a4.027,4.027,0,0,0-.25,1.363,4.072,4.072,0,0,0,3.347,4v89.042a7.024,7.024,0,0,0-5.714,9.706l-76.66,44.192a4.073,4.073,0,0,0-2.838-1.556V292.323a7.406,7.406,0,1,0-6.877-10.868l-73.51-42.5a6.914,6.914,0,0,0,.2-5.91l74.212-42.971A7.037,7.037,0,0,0,360.78,193.036Zm344.751.314.115,92.079L622.9,333.479a4.059,4.059,0,0,0-2.588-1.635l.115-91.85a4.073,4.073,0,0,0,3.351-4.005,4.009,4.009,0,0,0-.211-1.234l76.5-44.473A7.055,7.055,0,0,0,705.531,193.35Zm85.938,345.732.115,91.523a4.064,4.064,0,0,0-2.592,1.641l-76.05-44.027a7.319,7.319,0,0,0,.426-2.378,7.42,7.42,0,1,0-14.84,0,7.323,7.323,0,0,0,.405,2.308l-76.064,43.916a4.065,4.065,0,0,0-2.56-1.533v-88.74a7,7,0,0,0,5.807-9.9l74.039-42.508a7.019,7.019,0,0,0,11.451.014l76.762,44.318a4.028,4.028,0,0,0,3.1,5.37ZM619.215,638.563v95.368l-80.022,45.935A7.042,7.042,0,0,0,534,776.858V688.03a4.007,4.007,0,0,0,3.146-5.209l79.306-45.787A4.078,4.078,0,0,0,619.215,638.563ZM532.906,790.881l0,84.774a7.385,7.385,0,0,0-6.1,3.816l-76.094-44a4.033,4.033,0,0,0-.032-3.265l76.891-44.394A7.061,7.061,0,0,0,532.906,790.881Zm-262-254.4L191.5,581.965a7.362,7.362,0,0,0-12.06-2.985l-71.449-41.251a6.82,6.82,0,0,0,.176-6.042l76.9-44.1a4.046,4.046,0,0,0,5.936,0l79.614,45.658a3.876,3.876,0,0,0,.287,3.239Zm-79.7,47.888a6.691,6.691,0,1,1-6.692-6.691A6.7,6.7,0,0,1,191.2,584.368Zm-2.79-206.161.115-92.214h0l79.942-46.287a7.051,7.051,0,0,0,5.148,3.113v88.864a4.006,4.006,0,0,0-3.169,5.137l-76.569,44.327A7.04,7.04,0,0,0,188.415,378.207Zm171.876-85.883V381.2a4.081,4.081,0,0,0-2.759,1.452l-79.285-45.831a4,4,0,0,0-3.169-5.134V242.818a7.044,7.044,0,0,0,5.209-3.225L353.8,282.1a7.386,7.386,0,0,0,6.487,10.222Zm86.735,50.562a7.037,7.037,0,0,0,5.754-2.993l76.68,44.333a4.018,4.018,0,0,0,3.087,5l.114,91.736a4.055,4.055,0,0,0-2.764,1.713l-76.343-44.018a7.336,7.336,0,0,0,.83-3.34,7.421,7.421,0,0,0-14.842,0,7.33,7.33,0,0,0,.836,3.348l-76.293,44.107a4.059,4.059,0,0,0-2.694-1.792l.114-91.754a4.075,4.075,0,0,0,3.228-3.985,4,4,0,0,0-.2-1.19l76.689-44.211A7.04,7.04,0,0,0,447.026,342.886ZM532.911,489l.118,95.48-79.087,45.605a7.017,7.017,0,0,0-6.248-6.224V540.068a6.986,6.986,0,0,0,6.216-8.5l76.3-43.937A4.082,4.082,0,0,0,532.911,489ZM361.03,577.317l.111-88.33a4.083,4.083,0,0,0,2.644-1.442l76.34,44.075a7.122,7.122,0,0,0-.155,1.46,7.031,7.031,0,0,0,6.264,6.975v83.8a7.018,7.018,0,0,0-6.245,6.192l-72.632-42.213a7.353,7.353,0,0,0-6.326-10.522ZM188.771,480.8V392.253a7.038,7.038,0,0,0,5.271-3.12l72.041,41.7a7.416,7.416,0,0,0,6.157,11.556,7.307,7.307,0,0,0,1.868-.267l0,88.372a4.066,4.066,0,0,0-2.771,1.471l-79.529-45.61a4.064,4.064,0,0,0-3.035-5.559Zm85.577-141.035a4.057,4.057,0,0,0,3.248-1.636l79.216,45.792a3.882,3.882,0,0,0,.241,3.187L279.1,432.173a7.37,7.37,0,0,0-12.551-1.908L194.39,388.491a6.84,6.84,0,0,0,.225-6.08l76.489-44.28A4.054,4.054,0,0,0,274.348,339.764Zm90.078,143.652,76.3-44.113a7.384,7.384,0,0,0,12.479-.008l76.342,44.019a3.986,3.986,0,0,0-.087,3.069L453.432,530.16a7.034,7.034,0,0,0-12.838.046L364.5,486.273a3.955,3.955,0,0,0-.076-2.858Zm75.845-48.1A6.691,6.691,0,1,1,446.964,442,6.7,6.7,0,0,1,440.272,435.313Zm-161.342-.341a6.69,6.69,0,1,1-6.69-6.69A6.7,6.7,0,0,1,278.93,434.972ZM274.837,530.5l0-88.6a7.415,7.415,0,0,0,4.822-6.927,7.292,7.292,0,0,0-.335-2.084l78.12-45.165a4.069,4.069,0,0,0,2.6,1.519l-.114,91.711a4.073,4.073,0,0,0-3.353,4.005,4.009,4.009,0,0,0,.232,1.307l-79.28,45.6A4.075,4.075,0,0,0,274.837,530.5Zm92.51,54.2a6.691,6.691,0,1,1-6.69-6.69A6.7,6.7,0,0,1,367.347,584.7ZM353.965,284.94a6.691,6.691,0,1,1,6.692,6.692A6.7,6.7,0,0,1,353.965,284.94ZM275.078,538.553a4.065,4.065,0,0,0,3.471-4.016,4.011,4.011,0,0,0-.264-1.422l79.242-45.576a4.076,4.076,0,0,0,2.884,1.472l-.111,88.3a7.351,7.351,0,0,0-6.342,10.524L277.71,632.154a4.07,4.07,0,0,0-2.632-1.683Zm2.984,94.238,76.243-44.312a7.359,7.359,0,0,0,12.7,0l72.9,42.371a6.953,6.953,0,0,0,2.366,5.209l-78.553,45.353a4.039,4.039,0,0,0-5.981.1l-79.579-45.639a3.964,3.964,0,0,0-.1-3.082Zm83.325,55.438a4.061,4.061,0,0,0,3.143-5.6l79.058-45.646a7.015,7.015,0,0,0,3.01.879v88.773a7.412,7.412,0,0,0-7.056,7.384,7.33,7.33,0,0,0,.807,3.3l-73.78,42.538a7.044,7.044,0,0,0-5.183-3.18Zm78.885,45.792a6.691,6.691,0,1,1,6.692,6.69A6.7,6.7,0,0,1,440.272,734.022Zm13.743-103.138,79.562-45.878.182-.1-.118-95.9a4.076,4.076,0,0,0,2.759-1.46l76.843,44.438a7.011,7.011,0,0,0,5.606,9.791v88.764a4.078,4.078,0,0,0-3.286,4,4.026,4.026,0,0,0,.2,1.216l-79.3,45.781a4.033,4.033,0,0,0-6.394,0l-78.432-45.457A6.959,6.959,0,0,0,454.015,630.884Zm165.93,7.692a4.072,4.072,0,0,0,2.846-1.493l76.663,44.262a7,7,0,0,0,5.7,9.853v88.7a4.072,4.072,0,0,0-2.56,1.663l-82.652-47.628Zm85.943,38.584a7.029,7.029,0,0,0-5.7,2.925L623.5,635.806a3.873,3.873,0,0,0-.238-3.122l75.923-43.834a7.394,7.394,0,0,0,13.5.064l75.947,43.965a4,4,0,0,0-.152,3.076L711.594,680.1A7.032,7.032,0,0,0,705.887,677.16Zm-6.629-91.32a6.691,6.691,0,1,1,6.69,6.688A6.7,6.7,0,0,1,699.258,585.84Zm5.9-193.563v86.031a7.01,7.01,0,0,0-5.729,9.806L625.37,530.631a7.013,7.013,0,0,0-11.4.08l-76.852-44.443a4.018,4.018,0,0,0,.231-1.31,4.076,4.076,0,0,0-3.23-3.987l-.112-91.719a4.067,4.067,0,0,0,3.466-4.016,4.007,4.007,0,0,0-.178-1.126l79.189-45.654a4.028,4.028,0,0,0,6.2-.009l76.858,44.062a7.016,7.016,0,0,0,5.618,9.768ZM618.969,239.993l-.114,91.85a4.068,4.068,0,0,0-2.6,1.638l-76.383-44.289a7.334,7.334,0,0,0,.943-3.547,7.415,7.415,0,0,0-7.179-7.4V193a7.04,7.04,0,0,0,5.168-2.7l77.029,44.473a4.03,4.03,0,0,0-.208,1.222A4.073,4.073,0,0,0,618.969,239.993ZM533.4,292.336a6.691,6.691,0,1,1,6.689-6.692A6.7,6.7,0,0,1,533.4,292.336ZM532.906,193v85.275a7.4,7.4,0,1,0,6.61,11.554l76.377,44.285a3.91,3.91,0,0,0-.14,3.079L536.646,382.8a4.053,4.053,0,0,0-6.578.093L453.5,338.624a7.017,7.017,0,0,0-5.808-9.782v-89.03a4.072,4.072,0,0,0,3.347-4,4.027,4.027,0,0,0-.246-1.349L527.8,190.375A7.036,7.036,0,0,0,532.906,193ZM268.123,239.064l-79.594,46.086-.118-95.128a4.081,4.081,0,0,0,2.72-1.408l76.729,44.428a6.908,6.908,0,0,0,.264,6.022ZM187.68,190.023l.12,95.548-80.077,46.036a7.031,7.031,0,0,0-5.26-3.211v-88.5a4.02,4.02,0,0,0,3.166-5.35l79.322-45.929A4.077,4.077,0,0,0,187.68,190.023ZM108.072,332.248,187.8,286.414l-.114,91.816a7.053,7.053,0,0,0-5.313,3.028l-74.217-42.843a6.818,6.818,0,0,0-.082-6.166Zm-6.339,408.56a6.691,6.691,0,1,1,6.692-6.692A6.7,6.7,0,0,1,101.733,740.808Zm86.308-60.526a4.047,4.047,0,0,0-3.092,1.446l-79.2-45.789a3.937,3.937,0,0,0-3.289-4.582V541.546a7.051,7.051,0,0,0,5.181-3.175l71.288,41.158a7.43,7.43,0,1,0,12.79,3.149l79.594-45.592a4.072,4.072,0,0,0,2.3,1.427v91.941a4.07,4.07,0,0,0-3.348,4,4.026,4.026,0,0,0,.266,1.43l-79.4,45.842A4.051,4.051,0,0,0,188.041,680.282Zm93.851,53.74a7.416,7.416,0,0,0-7.179-7.4V638.5a4.083,4.083,0,0,0,2.7-1.372l79.565,45.631a4.051,4.051,0,0,0,2.952,5.445v88.474a7.042,7.042,0,0,0-5.191,3.193l-73.78-42.313A7.326,7.326,0,0,0,281.893,734.022Zm-7.42,6.69a6.69,6.69,0,1,1,6.69-6.69A6.7,6.7,0,0,1,274.473,740.712ZM366.917,780.5,440.7,737.96a7.405,7.405,0,1,0,6.629-11.322V637.865a6.993,6.993,0,0,0,3-.874L529.4,682.815a4.008,4.008,0,0,0,3.143,5.215v88.876a7.01,7.01,0,0,0-5.673,9.633L449.856,831a4.073,4.073,0,0,0-5.785,0l-76.982-44.446a6.864,6.864,0,0,0-.172-6.06Zm80.776,145.875V837.857a4.06,4.06,0,0,0,2.67-1.739l76.094,43.995a7.389,7.389,0,0,0,6.45,10.311l0,88.476a4.075,4.075,0,0,0-2.914,1.654l-76.612-44.3a7,7,0,0,0-5.687-9.885Zm78.888-43.332a6.69,6.69,0,1,1,6.69,6.69A6.7,6.7,0,0,1,526.582,883.04Zm93-53.491a4.056,4.056,0,0,0-3.222,1.606l-76.5-44.482a6.856,6.856,0,0,0-.307-6.174l80.025-45.935L702.242,782.2a4.017,4.017,0,0,0-.09,3.16L622.81,831.165A4.059,4.059,0,0,0,619.579,829.549ZM874.713,384.223a4.009,4.009,0,0,0,3.178,5.089l-.111,88.676a7.016,7.016,0,0,0-5.632,9.759L795.28,532.44a4.025,4.025,0,0,0-6.179.009l-76.764-44.32a7.008,7.008,0,0,0-5.722-9.821v-86a6.994,6.994,0,0,0,5.8-9.914l76.8-44.224a4.027,4.027,0,0,0,6.183.012Zm-86.283-149.4a4.008,4.008,0,0,0,3.038,5.151l.115,91.563a4.025,4.025,0,0,0-3.093,5.365l-76.818,44.233a7.012,7.012,0,0,0-11.412.106l-76.853-44.059a3.887,3.887,0,0,0-.144-3.072l82.93-48.157.182-.106-.115-92.5a7.064,7.064,0,0,0,5.523-3.161ZM612.889,136.151a6.691,6.691,0,1,1,6.69,6.69A6.7,6.7,0,0,1,612.889,136.151Zm.495,4.064a7.391,7.391,0,0,0,12.438-.083l73.842,42.94a6.906,6.906,0,0,0-.305,5.931l-76.475,44.464a4.032,4.032,0,0,0-6.368.009l-76.931-44.415a6.784,6.784,0,0,0-.05-6.267Zm-84-55.029a4,4,0,0,0,3.281,5.189v88.609a7.033,7.033,0,0,0-6.45,7,6.917,6.917,0,0,0,.789,3.169l-76.938,44.045a4.026,4.026,0,0,0-6.2-.011l-76.686-44.276a6.836,6.836,0,0,0-.168-6.163l80.131-46.132.182-.1.112-90.047a7.032,7.032,0,0,0,6.312-5.192ZM354.09-13.265a6.7,6.7,0,0,1,6.69-6.69,6.7,6.7,0,0,1,6.692,6.69,6.7,6.7,0,0,1-6.692,6.692A6.7,6.7,0,0,1,354.09-13.265Zm.437,3.96a7.405,7.405,0,0,0,6.253,3.462,7.416,7.416,0,0,0,6.191-3.345l75.17,43.517a7.015,7.015,0,0,0-2.233,5.125c0,.135.032.26.039.393L363.9,83.878a4.027,4.027,0,0,0-6.241,0L280.937,39.455a6.9,6.9,0,0,0-.37-6.059Zm-85.9,50.079a7.049,7.049,0,0,0,5.365,3.016l.106,85.116a7.407,7.407,0,1,0,6.553,11.366l73.836,42.577a6.887,6.887,0,0,0-.165,5.958l-74.2,42.963a7.033,7.033,0,0,0-11.545,0l-76.707-44.414a4.041,4.041,0,0,0-3.1-5.377v-91.6A4.014,4.014,0,0,0,192,85.023ZM8.734,185.983a6.691,6.691,0,1,1,6.692,6.69A6.7,6.7,0,0,1,8.734,185.983Zm7.056,99.383v-92a7.412,7.412,0,0,0,7.056-7.384,7.322,7.322,0,0,0-.788-3.26l79.8-46.009,82.435,47.666a3.983,3.983,0,0,0-.079,2.976l-79.307,45.919a4.068,4.068,0,1,0-3.9,6.6V328.4a7.046,7.046,0,0,0-5.159,3.243ZM96.152,339.6a6.994,6.994,0,0,0,11.24.056l74.266,42.87a6.862,6.862,0,0,0,.22,5.848l-80.509,46.549v92.59a7.05,7.05,0,0,0-5.333,2.911l-76.78-44.034a4.027,4.027,0,0,0-3.1-5.359V389.241a4.072,4.072,0,0,0,3.347-4,4.019,4.019,0,0,0-.25-1.361ZM-67.39,635.624a4.047,4.047,0,0,0,.586-2.076,4.074,4.074,0,0,0-3.348-4v-91a4.074,4.074,0,0,0,3.348-4,4.011,4.011,0,0,0-.165-1.085l79.3-45.784a4.025,4.025,0,0,0,6.194-.009L95.3,531.687a6.954,6.954,0,0,0-.622,2.85A7.032,7.032,0,0,0,101,541.519v89.839a3.944,3.944,0,0,0-3.29,4.57L21.169,679.953a7.023,7.023,0,0,0-11.487,0ZM108.424,933.176a6.691,6.691,0,1,1-6.692-6.692A6.7,6.7,0,0,1,108.424,933.176Zm79.251-50.107-79.722,46.088a7.387,7.387,0,0,0-12.444,0L15.79,883.14V787.487a4.074,4.074,0,0,0,2.494-1.164l79.624,45.97a4.032,4.032,0,0,0-.252,1.366,4.078,4.078,0,1,0,7.9-1.372l76.8-44.47a7.043,7.043,0,0,0,5.313,2.888Zm6.79-96.518a6.946,6.946,0,0,0,.63-2.865,7.03,7.03,0,0,0-6.324-6.981V688.362a4.025,4.025,0,0,0,3.095-5.37l79.429-45.857a4.085,4.085,0,0,0,2.689,1.363v88.154a7.4,7.4,0,1,0,6.617,11.542l73.786,42.316a6.866,6.866,0,0,0-.164,6.047l-76.7,44.282a4.026,4.026,0,0,0-6.185.1ZM278.2,934.624a4.011,4.011,0,0,0,.223-1.27,4.073,4.073,0,0,0-3.348-4V837.532a4.032,4.032,0,0,0,3.2-5.444l76.68-44.271a7.01,7.01,0,0,0,11.393,0l76.894,44.4a4.049,4.049,0,0,0-.036,3.254l-76.2,43.8a7.4,7.4,0,1,0-6.722,11.155V978.9a4.079,4.079,0,0,0-2.73,1.416Zm168.76,102.508a6.691,6.691,0,1,1,6.69-6.69A6.7,6.7,0,0,1,446.964,1037.132Zm7.109-8.7a7.376,7.376,0,0,0-14.219,0l-75.51-43.776a3.929,3.929,0,0,0,.144-3.075L441.277,937.5a7.007,7.007,0,0,0,11.361.015l76.717,44.358a3.839,3.839,0,0,0,.229,2.786ZM533.636,978.9V890.424a7.385,7.385,0,0,0,5.565-2.972l76.68,43.959a3.978,3.978,0,0,0,0,3.407l-79.335,45.74A4.074,4.074,0,0,0,533.636,978.9Zm89.28-48.123a4.073,4.073,0,0,0-2.607-1.653V837.629a4,4,0,0,0,3.161-5.16L702.925,786.6a4.1,4.1,0,0,0,2.6,1.314v87.752a7.348,7.348,0,0,0-5.925,11.155ZM712.64,883.04a6.691,6.691,0,1,1-6.692-6.692A6.7,6.7,0,0,1,712.64,883.04Zm82.708-51.969a4.027,4.027,0,0,0-6.308,0L709.723,785.41a3.994,3.994,0,0,0-.1-3.268l76.351-43.954a7.409,7.409,0,1,0,6.54-11.415l-.492-88.136c.1.008.193.03.293.03a4.053,4.053,0,0,0,3.093-1.449l78.348,45.246a4.052,4.052,0,0,0,3.667,5.828c.118,0,.229-.024.345-.035l0,88.623a6.983,6.983,0,0,0-5.751,10.009C855.221,796.6,808.549,823.472,795.348,831.071Z" transform="translate(20.073 0)" fill="#2c3f79" opacity="0.49"/>
    <path id="Tracé_17662" data-name="Tracé 17662" d="M703.037,841.533l0-76.226a3.481,3.481,0,1,0-3.949-5.634l-67.172-38.789a3.446,3.446,0,0,0-2.654-4.6l-.1-78.328a3.448,3.448,0,0,0,2.642-4.606L697.59,595.1a6.027,6.027,0,1,0,5.453-9.46l.1-75.885a3.485,3.485,0,1,0-3.427-5.485l-67.8-39.365a3.445,3.445,0,0,0-2.651-4.6l-.1-78.35a3.482,3.482,0,1,0-3.283-5.552l-65.6-38.205a5.979,5.979,0,0,0,.419-2.187,6.036,6.036,0,0,0-11.067-3.339l-63.208-36.757a6.285,6.285,0,0,0,.71-2.858,6.352,6.352,0,0,0-12.7,0,6.277,6.277,0,0,0,.751,2.931l-63.215,36.444a6.03,6.03,0,0,0-4.33-2.714V253.848a3.488,3.488,0,1,0-3.488-5.529l-65.1-37.8c0-.077.023-.15.023-.229a6.013,6.013,0,0,0-9.654-4.811L264.848,168.1a6.258,6.258,0,0,0,.756-2.94,6.352,6.352,0,0,0-12.7,0,6.261,6.261,0,0,0,.7,2.84l-63.321,36.56a6.03,6.03,0,0,0-10.522,5.767l-65.6,37.88a3.482,3.482,0,1,0-3.4,5.64V332.3a3.478,3.478,0,0,0-2.284,1.489L37.618,292.82l-68.6,39.554a6.334,6.334,0,0,0-5.379-3.013,6.359,6.359,0,0,0-6.352,6.352,6.344,6.344,0,0,0,6.039,6.321v79.11l68.852,39.8a5.854,5.854,0,0,0-.08,5.192l-65.809,37.886a3.463,3.463,0,0,0-2.65-1.245,3.491,3.491,0,0,0-3.491,3.491,3.486,3.486,0,0,0,2.865,3.427v78.574a3.486,3.486,0,0,0-2.865,3.427,3.479,3.479,0,0,0,.216,1.17l-67.8,39.141a3.476,3.476,0,0,0-2.806-1.433,3.49,3.49,0,0,0-3.489,3.491,3.486,3.486,0,0,0,2.865,3.427v77.9a3.486,3.486,0,0,0-2.865,3.427,3.49,3.49,0,0,0,3.489,3.491,3.454,3.454,0,0,0,2.146-.757l66.2,38.073a6.009,6.009,0,0,0-.5,2.4,6.019,6.019,0,0,0,5.414,5.977v75.7a3.485,3.485,0,0,0-2.865,3.427,3.477,3.477,0,0,0,3.178,3.457v82.238L31.887,972.41a6.264,6.264,0,0,0-.727,2.887,6.352,6.352,0,0,0,12.7,0,6.278,6.278,0,0,0-.728-2.89L111.7,932.768V853.343a6.029,6.029,0,0,0,4.553-2.477l65.827,38a3.444,3.444,0,0,0,2.56,4.529v78.623a3.485,3.485,0,1,0,3.325,5.611l67.9,39.093a3.423,3.423,0,0,0-.212,1.167,3.485,3.485,0,0,0,6.336,2.009l64.791,37.563a6.265,6.265,0,0,0-.111,1.088,6.352,6.352,0,0,0,12.7,0,6.253,6.253,0,0,0-.111-1.087l64.79-37.565a3.471,3.471,0,0,0,6.2-2.92l68.084-39.252a3.481,3.481,0,0,0,5.6-3.944l65.672-37.65a6.337,6.337,0,1,0,5.354-10.082V850.962a3.5,3.5,0,0,0,2.295-1.1L625.236,889a3.45,3.45,0,0,0-.191,1.088,3.49,3.49,0,1,0,6.98,0,3.419,3.419,0,0,0-.191-1.09c5.955-3.428,19.95-11.486,33.952-19.554,9.234-5.32,18.469-10.641,25.4-14.637,2.682-1.548,4.732-2.73,6.338-3.661a6.022,6.022,0,1,0,5.518-9.61ZM627.764,723.079l.422,75.548a6.341,6.341,0,0,0-6,6.317,6.27,6.27,0,0,0,.733,2.9l-65.37,37.634a3.488,3.488,0,0,0-2.263-1.4V768.167a5.995,5.995,0,0,0,4.888-8.42l65.817-37.789A3.506,3.506,0,0,0,627.764,723.079Zm.769,76.137a5.727,5.727,0,1,1-5.726,5.728A5.734,5.734,0,0,1,628.534,799.216ZM477.923,973.243l-65.6-37.606a6.294,6.294,0,0,0-5.112-9.577V853.516a6.026,6.026,0,0,0,4.706-2.541l65.534,38.108a3.407,3.407,0,0,0-.164,1,3.485,3.485,0,0,0,2.865,3.427v78.318A3.477,3.477,0,0,0,477.923,973.243ZM253.418,932.38a5.728,5.728,0,1,1,5.728,5.728A5.734,5.734,0,0,1,253.418,932.38Zm6.04,82.054V938.7a6.3,6.3,0,0,0,5.427-9l65.223-37.493a3.478,3.478,0,0,0,2.29,1.495v75.768a5.989,5.989,0,0,0-4.876,8.444L261.8,1015.651A3.493,3.493,0,0,0,259.458,1014.435ZM37.512,886.622a3.462,3.462,0,0,0-2.647,1.24l-68.063-39.3a3.422,3.422,0,0,0,.322-1.433,3.478,3.478,0,0,0-.253-1.3l65.308-37.508a6.321,6.321,0,0,0,10.668,0l63.18,36.287a5.837,5.837,0,0,0-.134,5.181L40.157,887.859A3.464,3.464,0,0,0,37.512,886.622ZM-30.326,762.03a6,6,0,0,0-.5-2.4l65.307-37.562a3.461,3.461,0,0,0,6.065.008l67.574,39.069a3.444,3.444,0,0,0,2.648,4.6v75.6a6.033,6.033,0,0,0-4.441,2.729l-63.18-36.285a6.271,6.271,0,0,0,.721-2.874,6.352,6.352,0,0,0-12.7,0,6.271,6.271,0,0,0,.721,2.874l-65.3,37.5a3.479,3.479,0,0,0-2.324-1.557V768.006A6.019,6.019,0,0,0-30.326,762.03ZM37.824,628.061V549.166l68.589-39.657a6.034,6.034,0,0,0,4.351,2.755V588.07a3.477,3.477,0,0,0-2.6,4.76L42.388,630.553A6.029,6.029,0,0,0,37.824,628.061ZM191.048,293.179a5.727,5.727,0,1,1-5.728-5.726A5.734,5.734,0,0,1,191.048,293.179Zm.625,0a6.344,6.344,0,0,0-5.995-6.315l-.091-72.856a6.039,6.039,0,0,0,4.715-2.627l65.663,38.02a3.44,3.44,0,0,0,2.656,4.561l-.094,75.757a6.03,6.03,0,0,0-4.363,2.761l-63.2-36.444A6.269,6.269,0,0,0,191.673,293.179ZM332.807,216.3l-.1,76.7-68.421,39.389a6.028,6.028,0,0,0-4.512-2.685l.094-75.742a3.443,3.443,0,0,0,2.665-4.561l64.7-37.466A6.017,6.017,0,0,0,332.807,216.3ZM259.252,341.75a6.013,6.013,0,0,0,4.84-2.459L329.747,377.2a3.447,3.447,0,0,0,2.651,4.594v76.217a6.01,6.01,0,0,0-4.892,8.306l-65.619,37.829a3.492,3.492,0,0,0-2.43-1.331V426.74a6.34,6.34,0,1,0-5.886-9.3l-62.924-36.382a5.912,5.912,0,0,0,.173-5.059l63.526-36.783A6.018,6.018,0,0,0,259.252,341.75Zm295.1.27.1,78.817-70.828,41.13a3.481,3.481,0,0,0-2.214-1.4l.1-78.621a3.486,3.486,0,0,0,2.868-3.428,3.417,3.417,0,0,0-.181-1.055l65.478-38.07A6.04,6.04,0,0,0,554.352,342.02Zm73.561,295.939.1,78.342a3.486,3.486,0,0,0-2.219,1.4l-65.1-37.684a6.263,6.263,0,0,0,.366-2.037,6.352,6.352,0,1,0-12.7,0,6.275,6.275,0,0,0,.346,1.976L483.6,717.552a3.478,3.478,0,0,0-2.193-1.313V640.28a5.989,5.989,0,0,0,4.97-8.479l63.378-36.385a6.007,6.007,0,0,0,9.8.012l65.707,37.936a3.444,3.444,0,0,0,2.653,4.6ZM480.467,723.114v81.632l-68.5,39.319a6.027,6.027,0,0,0-4.445-2.574V765.457A3.434,3.434,0,0,0,410.219,761L478.1,721.8A3.49,3.49,0,0,0,480.467,723.114ZM406.588,853.5l0,72.566a6.319,6.319,0,0,0-5.222,3.266l-65.135-37.66a3.464,3.464,0,0,0-.027-2.794l65.818-38A6.039,6.039,0,0,0,406.588,853.5ZM182.323,635.733l-67.972,38.935a6.3,6.3,0,0,0-10.323-2.556L42.871,636.8a5.839,5.839,0,0,0,.15-5.171l65.829-37.753a3.464,3.464,0,0,0,5.081,0l68.148,39.082a3.33,3.33,0,0,0,.244,2.773ZM114.1,676.723A5.727,5.727,0,1,1,108.37,671,5.733,5.733,0,0,1,114.1,676.723ZM111.71,500.254l.1-78.934h0L180.237,381.7a6.029,6.029,0,0,0,4.406,2.665V460.43a3.43,3.43,0,0,0-2.712,4.4l-65.542,37.944A6.021,6.021,0,0,0,111.71,500.254ZM258.833,426.74v76.073a3.482,3.482,0,0,0-2.362,1.245L188.6,464.825a3.427,3.427,0,0,0-2.712-4.4V384.363a6.03,6.03,0,0,0,4.459-2.761l62.93,36.387a6.324,6.324,0,0,0,5.552,8.751Zm74.243,43.279A6.023,6.023,0,0,0,338,467.457l65.636,37.95a3.444,3.444,0,0,0,2.642,4.277l.1,78.523a3.48,3.48,0,0,0-2.366,1.468l-65.347-37.68a6.258,6.258,0,0,0,.712-2.858,6.352,6.352,0,0,0-12.7,0,6.272,6.272,0,0,0,.715,2.865l-65.305,37.756a3.476,3.476,0,0,0-2.307-1.534l.1-78.539a3.491,3.491,0,0,0,2.764-3.412,3.417,3.417,0,0,0-.168-1.018l65.645-37.844A6.026,6.026,0,0,0,333.076,470.018ZM406.591,595.09l.1,81.728L339,715.855a6,6,0,0,0-5.348-5.327V638.8a5.98,5.98,0,0,0,5.321-7.277l65.316-37.609A3.5,3.5,0,0,0,406.591,595.09Zm-147.126,75.6.094-75.607a3.492,3.492,0,0,0,2.263-1.235l65.347,37.728a5.995,5.995,0,0,0,5.229,7.22v71.736a6.009,6.009,0,0,0-5.347,5.3l-62.172-36.135a6.294,6.294,0,0,0-5.414-9.008ZM112.015,588.07V512.277a6.03,6.03,0,0,0,4.512-2.671l61.666,35.7a6.306,6.306,0,0,0,6.869,9.663l0,75.644a3.49,3.49,0,0,0-2.372,1.258l-68.075-39.04a3.481,3.481,0,0,0-2.6-4.76Zm73.252-120.722a3.475,3.475,0,0,0,2.78-1.4l67.808,39.2a3.318,3.318,0,0,0,.206,2.727l-66.724,38.577a6.308,6.308,0,0,0-10.742-1.635l-61.77-35.757a5.853,5.853,0,0,0,.191-5.2l65.473-37.9A3.472,3.472,0,0,0,185.267,467.347ZM262.372,590.31l65.311-37.76a6.321,6.321,0,0,0,10.683-.006l65.346,37.68a3.426,3.426,0,0,0-.074,2.627l-65.077,37.472a6.021,6.021,0,0,0-10.99.039l-65.133-37.605a3.408,3.408,0,0,0,.2-1.125A3.452,3.452,0,0,0,262.372,590.31ZM327.3,549.136a5.727,5.727,0,1,1,5.726,5.726A5.734,5.734,0,0,1,327.3,549.136Zm-138.106-.291a5.727,5.727,0,1,1-5.726-5.728A5.734,5.734,0,0,1,189.19,548.845Zm-3.5,81.766V554.773a6.345,6.345,0,0,0,4.128-5.928,6.256,6.256,0,0,0-.287-1.785L256.4,508.4a3.479,3.479,0,0,0,2.225,1.3l-.1,78.5a3.442,3.442,0,0,0-2.671,4.547l-67.862,39.032A3.493,3.493,0,0,0,185.686,630.611Zm79.187,46.4a5.728,5.728,0,1,1-5.728-5.726A5.734,5.734,0,0,1,264.873,677.007ZM253.418,420.419a5.728,5.728,0,1,1,5.728,5.728A5.734,5.734,0,0,1,253.418,420.419ZM185.892,637.507a3.48,3.48,0,0,0,2.972-3.438,3.44,3.44,0,0,0-.226-1.217l67.829-39.012a3.486,3.486,0,0,0,2.468,1.26l-.094,75.586a6.294,6.294,0,0,0-5.429,9.009l-65.267,37.933a3.475,3.475,0,0,0-2.252-1.44Zm2.554,80.667,65.263-37.93a6.3,6.3,0,0,0,10.873,0l62.4,36.268a5.963,5.963,0,0,0,2.026,4.459l-67.24,38.821a3.458,3.458,0,0,0-5.119.085l-68.117-39.065a3.4,3.4,0,0,0-.087-2.638Zm71.324,47.454a3.478,3.478,0,0,0,2.691-4.791l67.673-39.072a6.013,6.013,0,0,0,2.577.751V798.5a6.283,6.283,0,0,0-5.35,9.143l-63.154,36.411a6.029,6.029,0,0,0-4.436-2.721Zm67.525,39.2a5.727,5.727,0,1,1,5.726,5.726A5.734,5.734,0,0,1,327.3,804.826ZM339.06,716.54l68.1-39.27.156-.09-.1-82.091a3.487,3.487,0,0,0,2.363-1.249l65.776,38.038a6,6,0,0,0,4.8,8.381v75.981a3.442,3.442,0,0,0-2.639,4.462L409.639,759.89a3.451,3.451,0,0,0-5.473,0l-67.137-38.909A5.963,5.963,0,0,0,339.06,716.54Zm142.032,6.585a3.488,3.488,0,0,0,2.436-1.279l65.622,37.888a5.992,5.992,0,0,0,4.881,8.434v75.926a3.48,3.48,0,0,0-2.19,1.422l-70.749-40.768Zm73.564,33.027a6.02,6.02,0,0,0-4.876,2.5l-65.648-37.9a3.308,3.308,0,0,0-.2-2.671l64.989-37.521a6.33,6.33,0,0,0,11.557.053l65.009,37.633a3.432,3.432,0,0,0-.13,2.633l-65.81,37.786A6.018,6.018,0,0,0,554.656,756.151Zm-5.673-78.167a5.726,5.726,0,1,1,5.726,5.725A5.733,5.733,0,0,1,548.983,677.984ZM554.031,512.3v73.64a6,6,0,0,0-4.9,8.393l-63.391,36.394a6,6,0,0,0-9.759.068l-65.785-38.043a3.42,3.42,0,0,0,.2-1.12,3.492,3.492,0,0,0-2.765-3.413l-.1-78.509a3.425,3.425,0,0,0,2.815-4.4l67.783-39.079a3.446,3.446,0,0,0,5.3-.006l65.789,37.716a6,6,0,0,0,4.808,8.361ZM480.257,381.945l-.1,78.621a3.482,3.482,0,0,0-2.225,1.4l-65.382-37.911a6.279,6.279,0,0,0,.807-3.037,6.348,6.348,0,0,0-6.147-6.33V341.718a6.021,6.021,0,0,0,4.424-2.313l65.936,38.067a3.43,3.43,0,0,0,2.685,4.473Zm-73.25,44.8a5.727,5.727,0,1,1,5.726-5.728A5.734,5.734,0,0,1,407.007,426.749Zm-.419-85.031v72.994a6.338,6.338,0,1,0,5.658,9.891l65.376,37.908a3.341,3.341,0,0,0-.118,2.636l-67.714,39.038a3.468,3.468,0,0,0-5.631.079l-65.54-37.892A6.006,6.006,0,0,0,333.648,458V381.792a3.444,3.444,0,0,0,2.654-4.582l65.917-37.738A6.024,6.024,0,0,0,406.588,341.718ZM179.938,381.15,111.808,420.6l-.1-81.428a3.488,3.488,0,0,0,2.327-1.205L179.712,376a6.031,6.031,0,0,0-.484,2.369A5.968,5.968,0,0,0,179.938,381.15Zm-68.856-41.978.1,81.787L42.64,460.364a6.025,6.025,0,0,0-4.5-2.749V381.858a3.44,3.44,0,0,0,2.711-4.579l67.9-39.313A3.484,3.484,0,0,0,111.082,339.172ZM42.939,460.914l68.245-39.234-.1,78.594a6.038,6.038,0,0,0-4.549,2.591L43.009,466.192a5.837,5.837,0,0,0-.07-5.279ZM37.512,810.632a5.727,5.727,0,1,1,5.728-5.726A5.734,5.734,0,0,1,37.512,810.632Zm73.878-51.808a3.471,3.471,0,0,0-2.647,1.238L40.952,720.868a3.571,3.571,0,0,0,.05-.495,3.485,3.485,0,0,0-2.865-3.427V640.069a6.03,6.03,0,0,0,4.435-2.718l61.022,35.232a6.294,6.294,0,0,0-1.575,4.14,6.353,6.353,0,1,0,12.523-1.445l68.131-39.025a3.494,3.494,0,0,0,1.971,1.22v78.7a3.485,3.485,0,0,0-2.865,3.427,3.435,3.435,0,0,0,.228,1.223l-67.967,39.242A3.468,3.468,0,0,0,111.39,758.824Zm80.335,46a6.347,6.347,0,0,0-6.144-6.332V723.058a3.494,3.494,0,0,0,2.307-1.175l68.107,39.06a3.465,3.465,0,0,0,2.525,4.661v75.733a6.033,6.033,0,0,0-4.442,2.732L190.924,807.85A6.27,6.27,0,0,0,191.725,804.826Zm-6.35,5.726a5.727,5.727,0,1,1,5.726-5.726A5.734,5.734,0,0,1,185.375,810.552Zm79.13,34.054,63.156-36.41a6.339,6.339,0,1,0,5.675-9.692V722.516a6,6,0,0,0,2.569-.748l67.68,39.225a3.444,3.444,0,0,0-.175,1.037,3.486,3.486,0,0,0,2.865,3.427v76.076a6,6,0,0,0-4.857,8.246L335.5,887.838a3.487,3.487,0,0,0-4.952,0l-65.9-38.044a5.874,5.874,0,0,0-.147-5.187Zm69.143,124.867V893.707a3.484,3.484,0,0,0,2.286-1.489l65.135,37.659a6.323,6.323,0,0,0,5.521,8.825l0,75.733a3.492,3.492,0,0,0-2.494,1.416l-65.58-37.917a5.987,5.987,0,0,0-4.867-8.461Zm67.527-37.093a5.726,5.726,0,1,1,5.726,5.728A5.734,5.734,0,0,1,401.175,932.38Zm79.6-45.786a3.474,3.474,0,0,0-2.759,1.374l-65.48-38.076a5.874,5.874,0,0,0-.261-5.285l68.5-39.319,70.758,40.773a3.43,3.43,0,0,0-.076,2.7l-67.915,39.211A3.47,3.47,0,0,0,480.78,886.595ZM699.17,505.4a3.435,3.435,0,0,0-.143.93,3.487,3.487,0,0,0,2.862,3.427l-.1,75.9a6.009,6.009,0,0,0-4.822,8.353l-65.8,38.257a3.447,3.447,0,0,0-5.289.008l-65.709-37.936a6,6,0,0,0-4.9-8.406V512.32a5.988,5.988,0,0,0,4.966-8.485l65.742-37.856a3.448,3.448,0,0,0,5.292.011ZM625.313,377.521a3.439,3.439,0,0,0-.162,1,3.487,3.487,0,0,0,2.762,3.412l.1,78.375a3.447,3.447,0,0,0-2.647,4.593L559.609,502.76a6,6,0,0,0-9.768.093l-65.785-37.715a3.334,3.334,0,0,0-.123-2.629l70.987-41.221.155-.091-.1-79.178a6.046,6.046,0,0,0,4.728-2.708ZM475.052,293.058a5.727,5.727,0,1,1,5.728,5.726A5.734,5.734,0,0,1,475.052,293.058Zm.423,3.48a6.327,6.327,0,0,0,10.647-.073l63.208,36.757a5.912,5.912,0,0,0-.261,5.077L483.607,376.36a3.451,3.451,0,0,0-5.452.008L412.3,338.348a5.92,5.92,0,0,0,.636-2.636,5.98,5.98,0,0,0-.678-2.727Zm-71.9-47.1a3.423,3.423,0,0,0,2.809,4.441v75.848a6.02,6.02,0,0,0-5.521,5.987,5.94,5.94,0,0,0,.675,2.712l-65.857,37.7a3.446,3.446,0,0,0-5.306-.011l-65.642-37.9a5.855,5.855,0,0,0-.144-5.277l68.591-39.487.156-.09.1-77.078a6.021,6.021,0,0,0,5.4-4.444Zm-150.05-84.273a5.728,5.728,0,1,1,5.728,5.726A5.733,5.733,0,0,1,253.524,165.162Zm.375,3.389a6.326,6.326,0,0,0,10.651.1L328.894,205.9a6.007,6.007,0,0,0-1.911,4.388c0,.115.027.223.033.335l-65.094,37.691a3.449,3.449,0,0,0-5.342,0l-65.674-38.026a5.907,5.907,0,0,0-.316-5.186Zm-73.528,42.867A6.041,6.041,0,0,0,184.964,214l.091,72.856a6.341,6.341,0,1,0,5.609,9.73l63.2,36.444a5.9,5.9,0,0,0-.141,5.1l-63.516,36.775a6.019,6.019,0,0,0-9.882,0l-65.66-38.017a3.457,3.457,0,0,0-2.651-4.6v-78.41a3.44,3.44,0,0,0,2.764-4.582ZM-42.093,335.713a5.733,5.733,0,0,1,5.728-5.726,5.732,5.732,0,0,1,5.726,5.726,5.733,5.733,0,0,1-5.726,5.728A5.734,5.734,0,0,1-42.093,335.713Zm6.04,85.072v-78.75a6.344,6.344,0,0,0,6.039-6.321,6.277,6.277,0,0,0-.674-2.789l68.305-39.383,70.564,40.8a3.411,3.411,0,0,0-.068,2.548L40.228,376.194a3.483,3.483,0,1,0-3.34,5.653v75.776a6.027,6.027,0,0,0-4.417,2.776Zm68.788,46.426a5.987,5.987,0,0,0,9.621.047l63.57,36.7a5.872,5.872,0,0,0,.188,5.005L37.2,548.807v79.254a6.034,6.034,0,0,0-4.564,2.492l-65.724-37.694a3.453,3.453,0,0,0,.212-1.159,3.486,3.486,0,0,0-2.864-3.427V509.7a3.487,3.487,0,0,0,2.865-3.427,3.453,3.453,0,0,0-.216-1.166ZM-107.255,720.6a3.443,3.443,0,0,0,.5-1.777,3.486,3.486,0,0,0-2.865-3.427V637.5a3.486,3.486,0,0,0,2.865-3.427,3.481,3.481,0,0,0-.141-.929l67.881-39.19a3.468,3.468,0,0,0,2.648,1.24,3.472,3.472,0,0,0,2.654-1.248L32,631.63a5.979,5.979,0,0,0,4.884,8.416v76.9a3.485,3.485,0,0,0-2.865,3.427,3.4,3.4,0,0,0,.049.484l-65.521,37.684a6.018,6.018,0,0,0-4.916-2.551,6.016,6.016,0,0,0-4.916,2.551ZM43.239,975.3a5.727,5.727,0,1,1-5.728-5.728A5.733,5.733,0,0,1,43.239,975.3Zm67.838-42.89-68.24,39.451a6.324,6.324,0,0,0-10.651,0l-68.239-39.393V850.59a3.487,3.487,0,0,0,2.134-1l68.157,39.349a3.441,3.441,0,0,0-.216,1.169,3.49,3.49,0,1,0,6.763-1.173l65.744-38.065a6.033,6.033,0,0,0,4.549,2.471Zm5.813-82.617a5.976,5.976,0,0,0-4.875-8.429V765.74a3.449,3.449,0,0,0,2.65-4.6l67.988-39.254a3.5,3.5,0,0,0,2.3,1.167v75.457a6.337,6.337,0,1,0,5.664,9.882l63.161,36.221a5.879,5.879,0,0,0-.143,5.175l-65.651,37.9a3.448,3.448,0,0,0-5.3.082Zm71.678,126.747a3.447,3.447,0,0,0,.19-1.087,3.485,3.485,0,0,0-2.865-3.427v-78.6a3.448,3.448,0,0,0,2.739-4.659l65.637-37.9a6,6,0,0,0,9.753,0l65.82,38a3.459,3.459,0,0,0-.03,2.785l-65.225,37.495a6.336,6.336,0,1,0-5.754,9.548v75.733a3.5,3.5,0,0,0-2.337,1.213Zm144.454,87.746a5.728,5.728,0,1,1,5.728-5.728A5.734,5.734,0,0,1,333.023,1064.282Zm6.086-7.447a6.314,6.314,0,0,0-12.172,0L262.3,1019.363a3.369,3.369,0,0,0,.124-2.632L328.155,979a6,6,0,0,0,9.725.014l65.668,37.968a3.284,3.284,0,0,0,.2,2.386Zm68.1-42.4V938.7a6.321,6.321,0,0,0,4.766-2.544l65.636,37.628a3.4,3.4,0,0,0,0,2.917l-67.909,39.152A3.488,3.488,0,0,0,407.212,1014.435Zm76.422-41.192a3.478,3.478,0,0,0-2.231-1.415V893.511a3.485,3.485,0,0,0,2.865-3.427,3.444,3.444,0,0,0-.159-.99l68.011-39.267a3.5,3.5,0,0,0,2.223,1.125v75.114a6.289,6.289,0,0,0-5.071,9.549Zm76.8-40.863a5.726,5.726,0,1,1-5.726-5.726A5.734,5.734,0,0,1,560.436,932.38Zm70.8-44.484a3.447,3.447,0,0,0-5.4,0l-67.894-39.087a3.43,3.43,0,0,0-.083-2.8l65.357-37.624a6.342,6.342,0,1,0,5.6-9.771l-.422-75.442c.085.006.165.026.25.026a3.467,3.467,0,0,0,2.648-1.241l67.066,38.73a3.449,3.449,0,0,0-.352,1.5,3.49,3.49,0,0,0,3.491,3.489c.1,0,.2-.021.294-.029l0,75.859a5.976,5.976,0,0,0-4.922,8.567C682.485,858.388,642.533,881.392,631.233,887.9Z" transform="translate(0 92.924)" fill="#2c3f79"/>
    <circle id="Ellipse_55" data-name="Ellipse 55" cx="7.588" cy="7.588" r="7.588" transform="translate(325.994 717.956)" fill="#34d086"/>
    <circle id="Ellipse_56" data-name="Ellipse 56" cx="7.588" cy="7.588" r="7.588" transform="translate(547.578 590.469)" fill="#34d086"/>
    <circle id="Ellipse_57" data-name="Ellipse 57" cx="7.588" cy="7.588" r="7.588" transform="translate(104.41 591.987)" fill="#34d086"/>
    <circle id="Ellipse_58" data-name="Ellipse 58" cx="7.588" cy="7.588" r="7.588" transform="translate(104.41 848.478)" fill="#34d086"/>
    <circle id="Ellipse_59" data-name="Ellipse 59" cx="7.588" cy="7.588" r="7.588" transform="translate(251.627 420.487)" fill="#34d086"/>
    <circle id="Ellipse_60" data-name="Ellipse 60" cx="7.588" cy="7.588" r="7.588" transform="translate(325.994 296.036)" fill="#34d086"/>
    <circle id="Ellipse_61" data-name="Ellipse 61" cx="7.588" cy="7.588" r="7.588" transform="translate(694.795 845.442)" fill="#34d086"/>
  </g>
</svg>
