<svg xmlns="http://www.w3.org/2000/svg" width="520" height="431" viewBox="0 0 520 431"><defs><style>.a{fill:#f7f7f7;}.b{fill:#f78557;}.c,.d{fill:#24275e;}.c{fill-rule:evenodd;}</style></defs><g transform="translate(-1078 -224)"><rect class="a" width="520" height="431" rx="8" transform="translate(1078 224)"/><g transform="translate(471.258 -6.094)"><g transform="translate(829.867 346.903)"><path class="b" d="M954.243,403.708a16.51,16.51,0,0,0,5.171-4.794h2.378a2.189,2.189,0,1,0,0-4.378H961.6a16.674,16.674,0,0,0,.831-4.34h2.34a2.189,2.189,0,1,0,0-4.379h-2.415a16.6,16.6,0,0,0-1.057-4.34h.453a2.189,2.189,0,0,0,0-4.379H958.81a16.825,16.825,0,0,0-13.1-6.3h-3.737a16.374,16.374,0,0,0-6.643,1.4h3.926a16.5,16.5,0,0,1,2.076,32.875c-.491.038-.981.075-1.51.075H922.84a20.261,20.261,0,0,0,6.907-6.228,1.266,1.266,0,0,0,.378.038h14.8a2.189,2.189,0,1,0,0-4.379H932.05a20.959,20.959,0,0,0,1.132-4.34h16.947a2.189,2.189,0,0,0,0-4.378H933.371a20.566,20.566,0,0,0-.83-4.34H945a2.189,2.189,0,0,0,0-4.379h-14.38a20.217,20.217,0,0,0-17.362-9.926h-1.434a20.209,20.209,0,0,0-16.381,8.454,18,18,0,0,1,30.535,5.624h-9.134a9.918,9.918,0,1,0,.188,12.154h-9.436a7.885,7.885,0,0,1,7.888-7.889h11.512a16.479,16.479,0,0,1,.113,1.925,18.006,18.006,0,0,1-31.289,12.153,20.182,20.182,0,0,0,16.041,7.964h29.591c15.324,0,27.741-.906,27.741-2.076C969.189,404.764,963.112,404.048,954.243,403.708Z" transform="translate(-895.438 -367.21)"/></g><g transform="translate(742.533 393.585)"><path class="c" d="M934.516,463.511h-5.8v11.25h-5.034a1.514,1.514,0,0,0-1.541,1.542v6.37h6.575v35.393h8.373a1.513,1.513,0,0,0,1.541-1.541v-33.8h7.243v-6.37a1.514,1.514,0,0,0-1.541-1.542h-5.7v-7.191A4.121,4.121,0,0,0,934.516,463.511Z" transform="translate(-819.554 -455.19)"/><path class="c" d="M969.713,518.116h8.373a1.513,1.513,0,0,0,1.541-1.541V467.621a4.122,4.122,0,0,0-4.109-4.11h-5.8Z" transform="translate(-839.956 -455.19)"/><path class="c" d="M1000.022,526.6h8.373a1.514,1.514,0,0,0,1.541-1.541V487.407a4.122,4.122,0,0,0-4.11-4.11h-5.8Z" transform="translate(-852.954 -463.675)"/><path class="c" d="M1004.04,448.942a5.986,5.986,0,0,0-6.267,6.267,5.729,5.729,0,0,0,1.747,4.366,6.246,6.246,0,0,0,4.521,1.7,6.082,6.082,0,0,0,4.417-1.7,5.8,5.8,0,0,0,1.747-4.366,6.077,6.077,0,0,0-1.747-4.521,5.843,5.843,0,0,0-4.417-1.746" transform="translate(-851.99 -448.942)"/><path class="c" d="M1037.919,500.749a10.987,10.987,0,0,1,2.723-7.859,9.793,9.793,0,0,1,7.448-2.826q4.315,0,6.472,2.62c1.439,1.747,2.106,4.161,2.106,7.243V525.92h8.373a1.514,1.514,0,0,0,1.542-1.541V498.695c0-5.188-1.387-9.3-4.212-12.431s-6.781-4.674-11.918-4.674a16.959,16.959,0,0,0-8.373,1.952,12.459,12.459,0,0,0-4.983,4.777v-1.644a4.122,4.122,0,0,0-4.109-4.11H1027.9V525.92h8.373a1.513,1.513,0,0,0,1.541-1.541v-23.63Z" transform="translate(-864.91 -462.942)"/><path class="c" d="M785.683,480.167a18.207,18.207,0,1,0,1.592,17.773H767.6a11.6,11.6,0,0,1,11.609-11.609h19.212a27.311,27.311,0,0,1,.308,4.16,28.119,28.119,0,1,1-1.952-10.325Z" transform="translate(-742.533 -454.688)"/><path class="c" d="M1132.561,497.591a11.684,11.684,0,1,0,1.233,12.636H1121.62a7.842,7.842,0,0,1,7.6-7.859h15.616a19.852,19.852,0,0,1,.154,2.466,21.571,21.571,0,1,1-1.233-7.243Z" transform="translate(-896.575 -463.636)"/><path class="c" d="M890.111,505.5a21.591,21.591,0,1,0-9.913,18.247v3.122H886a4.121,4.121,0,0,0,4.109-4.109V505.5Zm-21.625,11.917a11.866,11.866,0,1,1,11.866-11.866A11.871,11.871,0,0,1,868.486,517.419Z" transform="translate(-787.272 -463.945)"/></g><g transform="translate(790.885 465.185)"><path class="b" d="M827.189,602.257,837,575.632h4.413l9.737,26.625h-4.26l-2.282-6.5H833.731l-2.282,6.5Zm7.683-9.7h8.6l-4.3-12.134Z" transform="translate(-827.189 -574.871)"/><path class="b" d="M878.83,608.2a9.789,9.789,0,0,1-4.963-1.255,8.936,8.936,0,0,1-3.424-3.48,11.364,11.364,0,0,1,0-10.308,8.938,8.938,0,0,1,3.424-3.481,9.789,9.789,0,0,1,4.963-1.255,9.363,9.363,0,0,1,5.877,1.825,8.247,8.247,0,0,1,3.062,4.945h-4.222a3.973,3.973,0,0,0-1.674-2.434,5.583,5.583,0,0,0-5.781-.134,5.388,5.388,0,0,0-2.016,2.168,8.516,8.516,0,0,0,0,7.037,5.525,5.525,0,0,0,2.016,2.187,5.177,5.177,0,0,0,2.738.761,5.3,5.3,0,0,0,3.043-.875,3.986,3.986,0,0,0,1.674-2.472h4.222a8.167,8.167,0,0,1-3.044,4.906A9.306,9.306,0,0,1,878.83,608.2Z" transform="translate(-845.208 -580.354)"/><path class="b" d="M911.938,608.2a8.652,8.652,0,0,1-3.956-.8,5.462,5.462,0,0,1-2.319-2.111,5.618,5.618,0,0,1-.761-2.872,5.133,5.133,0,0,1,2.13-4.336,10,10,0,0,1,6.085-1.6h4.945v-.343a4.28,4.28,0,0,0-1.2-3.309,4.4,4.4,0,0,0-3.1-1.1,5.152,5.152,0,0,0-2.91.818,3.424,3.424,0,0,0-1.5,2.415H905.32a6.337,6.337,0,0,1,1.388-3.518,7.77,7.77,0,0,1,3.043-2.244,10.313,10.313,0,0,1,4.051-.78,8.508,8.508,0,0,1,6.124,2.073,7.446,7.446,0,0,1,2.168,5.648v11.6h-3.5l-.342-3.233a7.165,7.165,0,0,1-2.32,2.625A6.832,6.832,0,0,1,911.938,608.2Zm.8-3.27a4.709,4.709,0,0,0,2.758-.78,5.268,5.268,0,0,0,1.749-2.073,8.327,8.327,0,0,0,.78-2.853h-4.489a5.378,5.378,0,0,0-3.4.837,2.61,2.61,0,0,0-1.008,2.092,2.42,2.42,0,0,0,.97,2.035A4.253,4.253,0,0,0,912.737,604.926Z" transform="translate(-860.515 -580.354)"/><path class="b" d="M948.01,602.142a8.837,8.837,0,0,1-8.1-4.83,10.787,10.787,0,0,1-1.179-5.1,10.674,10.674,0,0,1,1.179-5.078,8.838,8.838,0,0,1,3.29-3.5,9.2,9.2,0,0,1,4.85-1.274,8.468,8.468,0,0,1,3.937.874,6.473,6.473,0,0,1,2.643,2.473V574.3h4.032v27.386h-3.614l-.418-2.928a8.663,8.663,0,0,1-2.511,2.358A7.473,7.473,0,0,1,948.01,602.142Zm.723-3.5a5.519,5.519,0,0,0,4.241-1.788,7.252,7.252,0,0,0,0-9.224,5.55,5.55,0,0,0-4.241-1.769,5.609,5.609,0,0,0-4.26,1.769,6.446,6.446,0,0,0-1.673,4.621,7,7,0,0,0,.76,3.309,5.685,5.685,0,0,0,2.112,2.263A5.79,5.79,0,0,0,948.733,598.643Z" transform="translate(-875.022 -574.3)"/><path class="b" d="M987.53,608.2a9.708,9.708,0,0,1-4.926-1.236,8.779,8.779,0,0,1-3.365-3.442,10.454,10.454,0,0,1-1.217-5.135,10.9,10.9,0,0,1,1.2-5.211,8.718,8.718,0,0,1,3.347-3.5,9.733,9.733,0,0,1,5-1.255,9.194,9.194,0,0,1,4.831,1.236,8.742,8.742,0,0,1,3.2,3.29,9.168,9.168,0,0,1,1.141,4.526q0,.38-.019.818t-.057.97H981.976a5.828,5.828,0,0,0,1.807,4.165,5.488,5.488,0,0,0,3.746,1.426,5.033,5.033,0,0,0,2.871-.78,4.723,4.723,0,0,0,1.731-2.111h4.031a8.567,8.567,0,0,1-3.023,4.451A8.77,8.77,0,0,1,987.53,608.2Zm0-16.469a5.71,5.71,0,0,0-3.576,1.2,5.237,5.237,0,0,0-1.9,3.594H992.7a4.815,4.815,0,0,0-1.56-3.5A5.22,5.22,0,0,0,987.53,591.727Z" transform="translate(-891.871 -580.354)"/><path class="b" d="M1014.779,607.74V588.874h3.575l.343,2.662a6.632,6.632,0,0,1,2.415-2.282,7.039,7.039,0,0,1,3.48-.837q4.488,0,6.239,3.537a7.4,7.4,0,0,1,2.757-2.586,7.651,7.651,0,0,1,3.746-.951,7.279,7.279,0,0,1,5.553,2.13q2.016,2.131,2.016,6.352v10.84h-4.032V597.318q0-5.477-4.184-5.477a4.348,4.348,0,0,0-3.481,1.6,6.881,6.881,0,0,0-1.35,4.564v9.737h-4.032V597.318q0-5.477-4.221-5.477a4.306,4.306,0,0,0-3.442,1.6,6.874,6.874,0,0,0-1.351,4.564v9.737Z" transform="translate(-907.635 -580.354)"/><path class="b" d="M1072.221,616.451l4.526-9.927h-1.1l-7.455-17.306h4.375l5.781,13.959,6.047-13.959h4.261l-12.171,27.234Z" transform="translate(-930.539 -580.697)"/></g><path class="d" d="M883.081,330.454l90.164,27.915.137,1.432c1.2,12.521,2.053,22.768,2.654,32.029h9.854c-.8-12.066-1.9-23.883-2.774-32.977l-.769-7.909L881.967,319.857l-3.494,1.109L781.62,350.943l-.77,7.911c-.877,9.086-1.97,20.9-2.775,32.975h9.855c.6-9.249,1.472-19.754,2.655-32.029l.137-1.431,91.208-28.229Z" transform="translate(-15.242)"/><path class="d" d="M883.508,671.164l-.813-.33c-30.008-12.171-49.672-23.991-63.758-38.322-14.3-14.553-23.009-32.157-27.316-55.289h-9.934c3.249,18.625,9.207,34.178,18.176,47.478,19.1,28.113,50.757,43.683,79.2,55.205l4.444,1.793,4.5-1.8c28.443-11.52,60.1-27.091,79.147-55.205,9-13.279,14.97-28.83,18.223-47.474h-9.933c-4.308,23.135-13.016,40.739-27.323,55.289-14.093,14.333-33.77,26.152-63.8,38.322Z" transform="translate(-16.791 -110.369)"/></g></g></svg>