<svg xmlns="http://www.w3.org/2000/svg" width="104.167" height="123.63" viewBox="0 0 104.167 123.63"><defs><style>.a{fill:#6161d6;}</style></defs><g transform="translate(-1486.204 -1795.872)"><path class="a" d="M1361.2,544.122l-.742-.231c-1.032-.321-25.446-8.087-39.862-27.1-6.234-8.22-12.094-25.9-11.231-43.783,1.048-21.726,2.861-35.413,2.879-35.548l.212-1.58,48.666-15.39,49.148,15.385.213,1.585c.018.136,1.831,13.822,2.879,35.548.863,17.884-5,35.563-11.231,43.783-14.42,19.014-39.144,26.779-40.189,27.1ZM1317.024,439.7c-.494,4.151-1.812,16.264-2.646,33.548-.8,16.51,4.669,33.192,10.216,40.507,12.081,15.93,32.477,23.648,36.612,25.087,4.167-1.432,24.833-9.149,36.92-25.087,5.547-7.314,11.012-24,10.216-40.507-.833-17.278-2.151-29.388-2.645-33.543l-44.571-13.952Z" transform="translate(176.927 1375.38)"/><g transform="translate(1509.225 1832.523)"><path class="a" d="M6.572,19.262H45.385v2.153a3.345,3.345,0,0,1,.823-.063h4.749V17.109A3.607,3.607,0,0,0,47.348,13.5H4.609A3.607,3.607,0,0,0,1,17.109V49.274H1a3.218,3.218,0,0,0,3.229,3.1H20.438c0,.7-.443,3.989-5.319,4.622h.127a1.393,1.393,0,1,0,0,2.786H36.584a1.393,1.393,0,1,0,0-2.786h.253c-4.875-.633-5.255-3.862-5.319-4.622H39.5V44.588H6.572ZM25.947,46.994a1.812,1.812,0,0,1,1.773,1.773,1.773,1.773,0,1,1-3.546,0A1.812,1.812,0,0,1,25.947,46.994Zm33.3,12.727a3.81,3.81,0,0,0,3.8-3.8V28a3.81,3.81,0,0,0-3.8-3.8H46.208a3.81,3.81,0,0,0-3.8,3.8V55.859a3.81,3.81,0,0,0,3.8,3.8H59.251ZM52.73,58.075a1.71,1.71,0,1,1,1.71-1.71A1.7,1.7,0,0,1,52.73,58.075ZM46.208,30.849h12.98V53.01H46.208Z" transform="translate(-1 -13.5)"/></g></g></svg>