<svg xmlns="http://www.w3.org/2000/svg" width="104.167" height="123.63" viewBox="0 0 104.167 123.63"><defs><style>.a{fill:#f78557;}</style></defs><g transform="translate(-1486.204 -1795.872)"><path class="a" d="M1361.2,544.122l-.742-.231c-1.032-.321-25.446-8.087-39.862-27.1-6.234-8.22-12.094-25.9-11.231-43.783,1.048-21.726,2.861-35.413,2.879-35.548l.212-1.58,48.666-15.39,49.148,15.385.213,1.585c.018.136,1.831,13.822,2.879,35.548.863,17.884-5,35.563-11.231,43.783-14.42,19.014-39.144,26.779-40.189,27.1ZM1317.024,439.7c-.494,4.151-1.812,16.264-2.646,33.548-.8,16.51,4.669,33.192,10.216,40.507,12.081,15.93,32.477,23.648,36.612,25.087,4.167-1.432,24.833-9.149,36.92-25.087,5.547-7.314,11.012-24,10.216-40.507-.833-17.278-2.151-29.388-2.645-33.543l-44.571-13.952Z" transform="translate(176.927 1375.38)"/><path class="a" d="M55.181,61.5a2.37,2.37,0,1,1,0-4.74,2.37,2.37,0,0,1,0,4.74ZM43.587,59.13a2.37,2.37,0,1,0-2.37,2.37A2.325,2.325,0,0,0,43.587,59.13ZM1.5,44.332h0V12.687A3.581,3.581,0,0,1,5.087,9.1H47.238a3.581,3.581,0,0,1,3.587,3.587V31.008L45.316,30.5V14.8H7.009V39.784H29.237l3.075,14.99H15.529a1.353,1.353,0,0,1-1.345-1.345,1.4,1.4,0,0,1,1.345-1.345H15.4c4.8-.577,5.189-3.844,5.253-4.548H4.639A3.119,3.119,0,0,1,1.5,44.524h0v-.192Zm22.869-.448a1.73,1.73,0,1,0,1.73-1.73A1.722,1.722,0,0,0,24.369,43.884Zm10.762-10.57h-.448l-1.089-5.125a1.128,1.128,0,0,0-.577-.833,1.239,1.239,0,0,0-.577-.32l-6.278-1.858A1.461,1.461,0,1,0,25.394,28L30.9,29.6l5.061,24.406a1.452,1.452,0,0,0,1.473,1.153H59.153a1.473,1.473,0,0,0,0-2.947H38.59l-.7-3.331H59.473a2.294,2.294,0,0,0,2.306-1.794l1.73-8.776a2.19,2.19,0,0,0-2.05-2.562l-3.267-.32Z" transform="translate(1507.725 1823.423)"/></g></svg>